<svg width="25" height="25" viewBox="0 0 25 25" fill="none" xmlns="http://www.w3.org/2000/svg">
<g clip-path="url(#clip0_1489_1351)">
<path d="M12.4253 24.6083C5.70801 24.6083 0.243164 19.1435 0.243164 12.4262C0.243164 5.70899 5.70801 0.244141 12.4253 0.244141C19.1425 0.244141 24.6074 5.70899 24.6074 12.4262C24.6074 19.1435 19.1425 24.6083 12.4253 24.6083Z" fill="white"/>
<path d="M12.4253 0.486505C15.614 0.486505 18.6123 1.72848 20.8676 3.98309C23.1229 6.23839 24.3642 9.23596 24.3642 12.4253C24.3642 15.6147 23.1222 18.6123 20.8676 20.8676C18.613 23.1229 15.6147 24.3642 12.4253 24.3642C9.23596 24.3642 6.23839 23.1222 3.98309 20.8676C1.72779 18.613 0.486505 15.614 0.486505 12.4253C0.486505 9.23665 1.72779 6.23769 3.98309 3.98309C6.23769 1.72779 9.23596 0.486505 12.4253 0.486505ZM12.4253 0C5.56284 0 0 5.56284 0 12.4253C0 19.2879 5.56284 24.8507 12.4253 24.8507C19.2879 24.8507 24.8507 19.2879 24.8507 12.4253C24.8507 5.56284 19.2872 0 12.4253 0Z" fill="#D2D2D2"/>
<g clip-path="url(#clip1_1489_1351)">
<path d="M13.3782 19.8806V13.7273H15.2622L15.5444 11.3296H13.3782V9.79827C13.3782 9.10424 13.5543 8.63103 14.4621 8.63103L15.6205 8.6304V6.48517C15.4201 6.45596 14.7324 6.39062 13.9325 6.39062C12.2625 6.39062 11.119 7.50792 11.119 9.56033V11.3288H9.23047V13.7265H11.119V19.8805H13.3783L13.3782 19.8806Z" fill="#121212"/>
</g>
</g>
<defs>
<clipPath id="clip0_1489_1351">
<rect width="24.85" height="24.85" fill="white"/>
</clipPath>
<clipPath id="clip1_1489_1351">
<rect width="6.39" height="13.49" fill="white" transform="translate(9.23047 6.39062)"/>
</clipPath>
</defs>
</svg>
