<svg width="25" height="25" viewBox="0 0 25 25" fill="none" xmlns="http://www.w3.org/2000/svg">
<g clip-path="url(#clip0_1489_1357)">
<path d="M12.4253 24.6083C5.70801 24.6083 0.243164 19.1435 0.243164 12.4262C0.243164 5.70899 5.70801 0.244141 12.4253 0.244141C19.1425 0.244141 24.6074 5.70899 24.6074 12.4262C24.6074 19.1435 19.1425 24.6083 12.4253 24.6083Z" fill="white"/>
<path d="M12.4253 0.486505C15.614 0.486505 18.6123 1.72848 20.8676 3.98309C23.1229 6.23839 24.3642 9.23596 24.3642 12.4253C24.3642 15.6147 23.1222 18.6123 20.8676 20.8676C18.613 23.1229 15.6147 24.3642 12.4253 24.3642C9.23596 24.3642 6.23839 23.1222 3.98309 20.8676C1.72779 18.613 0.486505 15.614 0.486505 12.4253C0.486505 9.23665 1.72779 6.23769 3.98309 3.98309C6.23769 1.72779 9.23596 0.486505 12.4253 0.486505ZM12.4253 0C5.56284 0 0 5.56284 0 12.4253C0 19.2879 5.56284 24.8507 12.4253 24.8507C19.2879 24.8507 24.8507 19.2879 24.8507 12.4253C24.8507 5.56284 19.2872 0 12.4253 0Z" fill="#D2D2D2"/>
<g clip-path="url(#clip1_1489_1357)">
<path d="M15.2857 7.54074C15.841 7.54074 16.3629 7.76774 16.7554 8.17981C17.1479 8.59188 17.3641 9.14 17.3641 9.72278V15.1733C17.3641 15.7441 17.1524 16.2809 16.7678 16.6846C16.3832 17.0882 15.8721 17.3107 15.3283 17.3107H10.287C9.72833 17.3107 9.20293 17.0822 8.80784 16.6674C8.41275 16.2526 8.19509 15.7011 8.19509 15.1144V9.75759C8.19509 9.16543 8.41476 8.60868 8.81361 8.18995C9.21245 7.77122 9.74275 7.54059 10.3068 7.54059H15.2857M15.2857 6.39062H10.3066C8.53541 6.39062 7.09961 7.89803 7.09961 9.75759V15.1142C7.09961 16.9623 8.52662 18.4606 10.287 18.4606H15.3285C17.0578 18.4606 18.4598 16.9888 18.4598 15.1733V9.72278C18.4596 7.88244 17.0387 6.39062 15.2857 6.39062Z" fill="#121212"/>
<path d="M15.838 8.47656C15.455 8.47656 15.1445 8.80253 15.1445 9.20462C15.1445 9.6067 15.455 9.93267 15.838 9.93267C16.221 9.93267 16.5315 9.6067 16.5315 9.20462C16.5315 8.80253 16.221 8.47656 15.838 8.47656Z" fill="#121212"/>
<path d="M12.7796 10.6027C13.2384 10.6027 13.6697 10.7902 13.994 11.1309C14.3184 11.4715 14.497 11.9243 14.497 12.406C14.497 12.8877 14.3184 13.3404 13.994 13.6811C13.6695 14.0217 13.2382 14.2092 12.7796 14.2092C12.3209 14.2092 11.8895 14.0217 11.565 13.6811C11.2406 13.3404 11.062 12.8877 11.062 12.406C11.062 11.9243 11.2406 11.4715 11.565 11.1309C11.8895 10.7902 12.3208 10.6027 12.7796 10.6027ZM12.7796 9.31641C11.1544 9.31641 9.83691 10.6996 9.83691 12.4058C9.83691 14.1121 11.1544 15.4952 12.7796 15.4952C14.4048 15.4952 15.7222 14.1121 15.7222 12.4058C15.7222 10.6996 14.4048 9.31641 12.7796 9.31641Z" fill="#121212"/>
</g>
</g>
<defs>
<clipPath id="clip0_1489_1357">
<rect width="24.85" height="24.85" fill="white"/>
</clipPath>
<clipPath id="clip1_1489_1357">
<rect width="11.36" height="12.07" fill="white" transform="translate(7.09961 6.39062)"/>
</clipPath>
</defs>
</svg>
