<svg width="155" height="37" viewBox="0 0 155 37" fill="none" xmlns="http://www.w3.org/2000/svg">
<path d="M109.654 11.1167C109.498 11.1167 109.35 11.1167 109.182 11.112V12.6535H108.402V8.37896C108.81 8.35531 109.187 8.35059 109.602 8.35059C110.647 8.35059 111.472 8.55154 111.479 9.6911V9.75493C111.479 10.9063 110.647 11.1191 109.654 11.1191V11.1167ZM110.691 9.68873C110.687 9.02675 110.22 9.02675 109.298 9.02675H109.182V10.4311C109.331 10.4358 109.486 10.4358 109.642 10.4358C110.342 10.4358 110.691 10.3153 110.691 9.7502V9.68637V9.68873Z" fill="white"/>
<path d="M113.714 12.7452C112.63 12.7452 111.965 12.1518 111.965 10.7664V10.2651C111.965 8.88443 112.637 8.29102 113.714 8.29102C114.792 8.29102 115.471 8.88443 115.471 10.2651V10.7664C115.471 12.1541 114.799 12.7452 113.714 12.7452ZM114.674 10.2699C114.674 9.31472 114.301 8.99319 113.717 8.99319C113.132 8.99319 112.764 9.31472 112.764 10.2699V10.764C112.764 11.7262 113.144 12.0478 113.717 12.0478C114.29 12.0478 114.674 11.7262 114.674 10.764V10.2699Z" fill="white"/>
<path d="M116.223 12.6534V8.37891H117.028V11.9749H118.836V12.6534H116.226H116.223Z" fill="white"/>
<path d="M120.652 11.0523V12.6528H119.871V11.0523L118.447 8.37598H119.284L119.956 9.61246C120.06 9.80869 120.173 10.0617 120.253 10.2744H120.289C120.364 10.0617 120.496 9.80869 120.598 9.61246L121.27 8.37598H122.074L120.649 11.0523H120.652Z" fill="white"/>
<path d="M124.411 9.04562V12.6534H123.607V9.04562H122.333V8.37891H125.684V9.04562H124.411Z" fill="white"/>
<path d="M126.297 12.6534V8.37891H129.011V9.04562H127.101V10.1332H128.891V10.7786H127.101V11.9938H129.011V12.6558H126.297V12.6534Z" fill="white"/>
<path d="M131.372 12.7452C130.275 12.7452 129.554 12.3315 129.554 10.7995V10.2297C129.554 8.70003 130.278 8.29102 131.372 8.29102C131.744 8.29102 132.249 8.35958 132.445 8.40686V9.0452C132.164 9.02156 131.756 8.99319 131.424 8.99319C130.707 8.99319 130.355 9.24616 130.355 10.2297V10.7995C130.355 11.783 130.704 12.043 131.424 12.043C131.756 12.043 132.164 12.0147 132.445 11.991V12.6364C132.249 12.6814 131.744 12.7452 131.372 12.7452Z" fill="white"/>
<path d="M135.744 12.6534V10.7715H133.878V12.6534H133.074V8.37891H133.878V10.0811H135.744V8.37891H136.548V12.6534H135.744Z" fill="white"/>
<path d="M139.863 12.653L138.498 10.1162C138.394 9.91996 138.274 9.69064 138.177 9.47786H138.166C138.177 9.71901 138.189 9.9838 138.189 10.2439V12.6554H137.453V8.38086H138.382L139.743 10.8657C139.847 11.0619 139.979 11.3078 140.071 11.5158H140.083C140.066 11.2628 140.059 10.9626 140.059 10.7049V8.38086H140.8V12.6554H139.863V12.653Z" fill="white"/>
<path d="M141.705 12.6534V8.37891H142.509V12.6534H141.705Z" fill="white"/>
<path d="M145.079 12.7452C143.983 12.7452 143.261 12.3315 143.261 10.7995V10.2297C143.261 8.70003 143.985 8.29102 145.079 8.29102C145.452 8.29102 145.957 8.35958 146.152 8.40686V9.0452C145.872 9.02156 145.464 8.99319 145.131 8.99319C144.414 8.99319 144.063 9.24616 144.063 10.2297V10.7995C144.063 11.783 144.412 12.043 145.131 12.043C145.464 12.043 145.872 12.0147 146.152 11.991V12.6364C145.957 12.6814 145.452 12.7452 145.079 12.7452Z" fill="white"/>
<path d="M110.05 19.6489C108.965 19.6489 108.373 19.039 108.373 17.8072V15.2822H109.166V17.767C109.166 18.63 109.366 18.9586 110.05 18.9586C110.734 18.9586 110.934 18.63 110.934 17.767V15.2822H111.719V17.8072C111.719 19.039 111.128 19.6489 110.05 19.6489Z" fill="white"/>
<path d="M115.007 19.5563L113.641 17.0195C113.538 16.8233 113.417 16.594 113.321 16.3812H113.309C113.321 16.6223 113.332 16.8871 113.332 17.1472V19.5587H112.597V15.2842H113.526L114.886 17.769C114.99 17.9652 115.122 18.2111 115.214 18.4191H115.226C115.209 18.1662 115.202 17.8659 115.202 17.6082V15.2842H115.943V19.5587H115.007V19.5563Z" fill="white"/>
<path d="M116.848 19.5567V15.2822H117.653V19.5567H116.848Z" fill="white"/>
<path d="M120.727 19.5567H119.558L118.272 15.2822H119.098L119.975 18.2446C120.05 18.4928 120.091 18.786 120.147 19.0106H120.159C120.204 18.7813 120.256 18.4928 120.331 18.2446L121.208 15.2822H122.017L120.725 19.5567H120.727Z" fill="white"/>
<path d="M122.637 19.5567V15.2822H125.352V15.9489H123.442V17.0365H125.231V17.6819H123.442V18.8971H125.352V19.5591H122.637V19.5567Z" fill="white"/>
<path d="M128.594 19.5568L127.653 17.9751C127.537 17.9798 127.413 17.9799 127.28 17.9799H126.884V19.5568H126.104V15.2823C126.483 15.2657 126.868 15.2539 127.297 15.2539C128.325 15.2539 129.174 15.462 129.174 16.5897V16.6299C129.174 17.28 128.893 17.6205 128.438 17.8144L129.443 19.5568H128.594ZM128.386 16.5991C128.386 15.9372 127.927 15.9324 126.882 15.9324V17.3368C127.03 17.3415 127.174 17.3415 127.323 17.3415C128.059 17.3415 128.384 17.1855 128.384 16.6346V16.5991H128.386Z" fill="white"/>
<path d="M131.273 19.6485C130.716 19.6485 130.141 19.5729 129.929 19.5161V18.9014C130.278 18.9369 130.674 18.97 131.209 18.97C131.744 18.97 131.973 18.8258 131.973 18.4404C131.973 18.1638 131.865 18.0078 131.44 17.8304L130.796 17.5656C130.164 17.3056 129.827 16.9439 129.827 16.3221C129.827 15.4946 130.344 15.1943 131.353 15.1943C131.893 15.1943 132.397 15.2818 132.598 15.3315V15.9414C132.27 15.9131 131.834 15.8658 131.386 15.8658C130.886 15.8658 130.617 15.9509 130.617 16.2961C130.617 16.5561 130.737 16.6885 131.162 16.8611L131.742 17.0975C132.487 17.4025 132.787 17.7075 132.787 18.4333C132.787 19.2111 132.23 19.6462 131.273 19.6462V19.6485Z" fill="white"/>
<path d="M133.522 19.5567V15.2822H134.327V19.5567H133.522Z" fill="white"/>
<path d="M137.017 15.9489V19.5567H136.213V15.9489H134.94V15.2822H138.291V15.9489H137.017Z" fill="white"/>
<path d="M140.752 17.9556V19.5562H139.972V17.9556L138.547 15.2793H139.384L140.057 16.5158C140.16 16.712 140.276 16.965 140.356 17.1778H140.391C140.467 16.965 140.599 16.712 140.7 16.5158L141.372 15.2793H142.176L140.752 17.9556Z" fill="white"/>
<path d="M109.998 26.5518C108.913 26.5518 108.248 25.9584 108.248 24.573V24.0718C108.248 22.6911 108.92 22.0977 109.998 22.0977C111.076 22.0977 111.755 22.6911 111.755 24.0718V24.573C111.755 25.9584 111.083 26.5518 109.998 26.5518ZM110.955 24.0765C110.955 23.1214 110.583 22.7998 109.998 22.7998C109.413 22.7998 109.045 23.1214 109.045 24.0765V24.5706C109.045 25.5305 109.425 25.8544 109.998 25.8544C110.571 25.8544 110.955 25.5329 110.955 24.5706V24.0765Z" fill="white"/>
<path d="M113.309 22.857V23.9398H115.099V24.5852H113.309V26.4601H112.505V22.1855H115.219V22.8594H113.309V22.857Z" fill="white"/>
<path d="M117.037 26.4601V22.1855H117.841V25.7815H119.65V26.4601H117.039H117.037Z" fill="white"/>
<path d="M120.251 26.4601V22.1855H121.055V26.4601H120.251Z" fill="white"/>
<path d="M123.246 26.5518C122.689 26.5518 122.114 26.4762 121.902 26.4194V25.8047C122.251 25.8402 122.647 25.8733 123.182 25.8733C123.717 25.8733 123.946 25.7291 123.946 25.3437C123.946 25.0671 123.838 24.9111 123.413 24.7338L122.769 24.469C122.137 24.2089 121.8 23.8472 121.8 23.2254C121.8 22.3979 122.317 22.0977 123.326 22.0977C123.866 22.0977 124.371 22.1851 124.571 22.2348V22.8447C124.243 22.8164 123.807 22.7691 123.359 22.7691C122.859 22.7691 122.59 22.8542 122.59 23.1994C122.59 23.4594 122.711 23.5918 123.135 23.7644L123.715 24.0009C124.46 24.3058 124.76 24.6108 124.76 25.3366C124.76 26.1145 124.203 26.5495 123.246 26.5495V26.5518Z" fill="white"/>
<path d="M126.729 26.4929C126.241 26.4929 126.035 26.4811 125.495 26.4574V22.1829C126.057 22.1593 126.264 22.1475 126.752 22.1475C127.894 22.1475 128.601 22.3484 128.601 23.3107V23.3627C128.601 23.7315 128.441 24.0885 128.061 24.2611C128.462 24.4289 128.625 24.7954 128.625 25.1642V25.2209C128.625 26.2919 127.832 26.4929 126.731 26.4929H126.729ZM127.818 23.3414C127.818 22.852 127.434 22.8118 126.75 22.8118H126.274V23.9679H126.997C127.658 23.9679 127.818 23.748 127.818 23.3934V23.3414ZM127.837 25.1595C127.832 24.7859 127.66 24.5495 127.005 24.5495H126.276V25.8333H126.495C127.368 25.8333 127.837 25.8285 127.837 25.2233V25.1595Z" fill="white"/>
<path d="M130.964 26.5518C129.879 26.5518 129.214 25.9584 129.214 24.573V24.0718C129.214 22.6911 129.886 22.0977 130.964 22.0977C132.041 22.0977 132.721 22.6911 132.721 24.0718V24.573C132.721 25.9584 132.049 26.5518 130.964 26.5518ZM131.921 24.0765C131.921 23.1214 131.549 22.7998 130.964 22.7998C130.379 22.7998 130.011 23.1214 130.011 24.0765V24.5706C130.011 25.5305 130.391 25.8544 130.964 25.8544C131.537 25.8544 131.921 25.5329 131.921 24.5706V24.0765Z" fill="white"/>
<path d="M135.88 26.4596L134.515 23.9228C134.411 23.7266 134.291 23.4973 134.194 23.2845H134.183C134.194 23.5256 134.206 23.7904 134.206 24.0505V26.462H133.47V22.1875H134.4L135.76 24.6723C135.864 24.8685 135.996 25.1144 136.088 25.3225H136.1C136.083 25.0695 136.076 24.7692 136.076 24.5115V22.1875H136.817V26.462H135.88V26.4596Z" fill="white"/>
<path d="M102.608 8.3125H102.212V26.5524H102.608V8.3125Z" fill="white"/>
<path d="M35.2724 13.303C34.9894 13.303 34.7159 13.303 34.4117 13.2935V16.1164H32.9827V8.29322C33.7278 8.25067 34.4211 8.24121 35.1781 8.24121C37.0905 8.24121 38.602 8.61003 38.6114 10.6953V10.8111C38.6114 12.9176 37.0881 13.3054 35.2724 13.3054V13.303ZM37.173 10.6905C37.1636 9.48006 36.3123 9.48006 34.6215 9.48006H34.4117V12.05C34.6852 12.0594 34.9682 12.0594 35.2512 12.0594C36.5316 12.0594 37.173 11.8372 37.173 10.8064V10.6905Z" fill="white"/>
<path d="M42.7028 16.2823C40.7173 16.2823 39.5005 15.1971 39.5005 12.6603V11.7453C39.5005 9.21799 40.7291 8.13281 42.7028 8.13281C44.6765 8.13281 45.9169 9.21799 45.9169 11.7453V12.6603C45.9169 15.1971 44.6883 16.2823 42.7028 16.2823ZM44.4548 11.7548C44.4548 10.0076 43.771 9.41658 42.7004 9.41658C41.6299 9.41658 40.9578 10.0053 40.9578 11.7548V12.6603C40.9578 14.4193 41.6511 15.008 42.7004 15.008C43.7498 15.008 44.4548 14.4193 44.4548 12.6603V11.7548Z" fill="white"/>
<path d="M47.1477 16.1142V8.29102H48.6168V14.873H51.9252V16.1166H47.1477V16.1142Z" fill="white"/>
<path d="M52.918 16.1142V8.29102H54.3871V16.1142H52.918Z" fill="white"/>
<path d="M59.1787 9.51332V16.1166H57.7096V9.51332H55.3774V8.29102H61.5109V9.51332H59.1787Z" fill="white"/>
<path d="M62.5178 16.114V8.29083H67.4863V9.51313H63.9893V11.5038H67.267V12.6835H63.9893V14.9059H67.4863V16.1164H62.5178V16.114ZM65.5433 7.80617H64.2204L65.5951 6.23633H67.201L65.5409 7.80617H65.5433Z" fill="white"/>
<path d="M71.6861 16.2823C69.6793 16.2823 68.3564 15.5234 68.3564 12.7241V11.6815C68.3564 8.8799 69.6793 8.13281 71.6861 8.13281C72.3699 8.13281 73.2919 8.25812 73.6504 8.34323V9.51115C73.1363 9.46859 72.3888 9.41658 71.7804 9.41658C70.4669 9.41658 69.8279 9.87997 69.8279 11.6791V12.7218C69.8279 14.5209 70.4693 14.9961 71.7804 14.9961C72.3888 14.9961 73.1339 14.9441 73.6504 14.9016V16.0813C73.2943 16.1664 72.3699 16.2823 71.6861 16.2823Z" fill="white"/>
<path d="M79.0764 16.1142L76.5768 11.4709C76.3882 11.1139 76.1665 10.6907 75.9896 10.303H75.9684C75.9896 10.7451 76.0109 11.2297 76.0109 11.7026V16.1142H74.6667V8.29102H76.3669L78.8571 12.8398C79.0457 13.1968 79.2886 13.6507 79.456 14.029H79.4773C79.4466 13.5656 79.4348 13.0171 79.4348 12.5442V8.29102H80.7907V16.1142H79.0787H79.0764Z" fill="white"/>
<path d="M82.248 16.1142V8.29102H83.7171V16.1142H82.248Z" fill="white"/>
<path d="M88.2871 16.2823C86.2804 16.2823 84.9575 15.5234 84.9575 12.7241V11.6815C84.9575 8.8799 86.2804 8.13281 88.2871 8.13281C88.971 8.13281 89.893 8.25812 90.2514 8.34323V9.51115C89.7374 9.46859 88.9899 9.41658 88.3815 9.41658C87.068 9.41658 86.429 9.87997 86.429 11.6791V12.7218C86.429 14.5209 87.0704 14.9961 88.3815 14.9961C88.9899 14.9961 89.735 14.9441 90.2514 14.9016V16.0813C89.8954 16.1664 88.971 16.2823 88.2871 16.2823Z" fill="white"/>
<path d="M94.1256 16.2823C92.1401 16.2823 90.9233 15.1971 90.9233 12.6603V11.7453C90.9233 9.21799 92.1519 8.13281 94.1256 8.13281C96.0994 8.13281 97.3397 9.21799 97.3397 11.7453V12.6603C97.3397 15.1971 96.1112 16.2823 94.1256 16.2823ZM95.8777 11.7548C95.8777 10.0076 95.1939 9.41658 94.1233 9.41658C93.0527 9.41658 92.3806 10.0053 92.3806 11.7548V12.6603C92.3806 14.4193 93.0739 15.008 94.1233 15.008C95.1726 15.008 95.8777 14.4193 95.8777 12.6603V11.7548Z" fill="white"/>
<path d="M35.4186 26.6325C34.4636 26.6325 33.9259 26.6112 32.9827 26.5687V18.7455C33.9283 18.7029 34.3904 18.6816 35.4186 18.6816C37.9488 18.6816 39.0217 19.8614 39.0217 22.1452V23.1358C39.0217 25.4409 38.0125 26.6325 35.4186 26.6325ZM37.5621 22.1476C37.5621 20.443 36.89 19.937 35.3879 19.937H34.4211V25.3913H35.3879C36.89 25.3913 37.5621 24.8428 37.5621 23.1382V22.1476Z" fill="white"/>
<path d="M40.2551 26.5712V18.748H45.2236V19.9703H41.7266V21.961H45.0043V23.1408H41.7266V25.3631H45.2236V26.5736H40.2551V26.5712Z" fill="white"/>
<path d="M48.657 26.5712V18.748H50.1261V25.33H53.4345V26.5736H48.657V26.5712Z" fill="white"/>
<path d="M54.4272 26.5712V18.748H55.8963V26.5712H54.4272Z" fill="white"/>
<path d="M59.6645 26.7387C58.6458 26.7387 57.5965 26.6016 57.2074 26.4976V25.3699C57.8488 25.4337 58.5727 25.4952 59.549 25.4952C60.5252 25.4952 60.9449 25.2327 60.9449 24.5258C60.9449 24.0199 60.7445 23.7362 59.9687 23.4099L58.792 22.9253C57.6365 22.4524 57.0164 21.7881 57.0164 20.6509C57.0164 19.1354 57.962 18.5869 59.8107 18.5869C60.7987 18.5869 61.7231 18.7453 62.0886 18.8399V19.9558C61.4897 19.9038 60.6926 19.8187 59.872 19.8187C58.9594 19.8187 58.4642 19.9771 58.4642 20.6083C58.4642 21.0812 58.6859 21.3247 59.4617 21.6415L60.5228 22.0741C61.8882 22.6321 62.4353 23.19 62.4353 24.5164C62.4353 25.9373 61.4166 26.7387 59.6621 26.7387H59.6645Z" fill="white"/>
<path d="M65.805 26.6325C64.9113 26.6325 64.534 26.6112 63.5483 26.5687V18.7455C64.5765 18.7029 64.9561 18.6816 65.8475 18.6816C67.9368 18.6816 69.229 19.0505 69.229 20.8094V20.904C69.229 21.5778 68.9342 22.2303 68.241 22.5471C68.9767 22.8521 69.2691 23.5259 69.2691 24.1997V24.3061C69.2691 26.2637 67.8189 26.6325 65.8027 26.6325H65.805ZM67.8023 20.8638C67.8023 19.9678 67.0996 19.8945 65.8498 19.8945H64.9773V22.0105H66.3002C67.5076 22.0105 67.8023 21.6109 67.8023 20.9584V20.8638ZM67.833 24.1903C67.8236 23.5046 67.5076 23.0744 66.3097 23.0744H64.975V25.422H65.3735C66.9699 25.422 67.8306 25.4126 67.8306 24.3061V24.1903H67.833Z" fill="white"/>
<path d="M73.4406 26.7393C71.4551 26.7393 70.2383 25.6541 70.2383 23.1173V22.2024C70.2383 19.675 71.4669 18.5898 73.4406 18.5898C75.4143 18.5898 76.6547 19.675 76.6547 22.2024V23.1173C76.6547 25.6541 75.4261 26.7393 73.4406 26.7393ZM75.1926 22.2118C75.1926 20.4647 74.5088 19.8736 73.4382 19.8736C72.3676 19.8736 71.6956 20.4623 71.6956 22.2118V23.1173C71.6956 24.8763 72.3889 25.465 73.4382 25.465C74.4876 25.465 75.1926 24.8763 75.1926 23.1173V22.2118Z" fill="white"/>
<path d="M82.5098 26.5712L81.8377 24.382H79.3287L78.6354 26.5712H77.1333L79.4961 18.748H81.6915L84.0543 26.5712H82.5098ZM80.9039 21.0106C80.7883 20.6205 80.7035 20.1997 80.6304 19.7788H80.536C80.4511 20.1997 80.378 20.6205 80.2625 21.0106L79.5999 23.1691H81.5524L80.9015 21.0106H80.9039Z" fill="white"/>
<path d="M8.84985 7.08984V30.7627C13.2548 27.9966 18.1148 26.9114 22.7414 26.9114C24.7859 26.9114 26.6959 27.1313 28.4433 27.6042V7.08984H8.84985ZM14.4904 15.4095C15.2851 16.0715 16.0515 16.776 16.7919 17.516C16.5986 19.7266 16.2519 21.8804 15.7756 23.968C15.0658 24.1524 14.3584 24.3723 13.6533 24.6252C13.9598 23.0223 14.1957 21.391 14.3348 19.7171C14.4527 18.2679 14.5022 16.8304 14.4904 15.4119V15.4095ZM10.6821 18.3695C11.4555 19.0126 12.2031 19.7006 12.9246 20.4193C12.7596 22.0435 12.5073 23.6323 12.1889 25.1927C11.4791 25.4976 10.7788 25.8428 10.0855 26.2235C10.2694 25.0579 10.4251 23.8758 10.5241 22.6771C10.6444 21.2255 10.6915 19.7904 10.6821 18.3695ZM22.7414 23.0909C20.8785 23.0909 18.9779 23.2705 17.0843 23.663C17.6007 21.443 17.978 19.1521 18.1714 16.7926C18.2917 15.341 18.3412 13.9059 18.3294 12.4874C21.6661 15.2582 24.9533 19.4807 27.2006 23.5022C25.8022 23.228 24.3119 23.0932 22.7414 23.0932V23.0909Z" fill="white"/>
</svg>
