<svg width="161" height="32" viewBox="0 0 161 32" fill="none" xmlns="http://www.w3.org/2000/svg">
<path d="M38.1851 12.3088V4.13184H43.134V4.68359H38.8042V7.90996H42.4929V8.46171H38.8042V11.757H43.134V12.3088H38.1851Z" fill="white"/>
<path d="M46.7888 12.378C45.5739 12.378 44.8186 12.0455 44.0742 11.2979L44.509 10.862C45.2423 11.5972 45.8381 11.8262 46.8232 11.8262C48.1055 11.8262 48.9186 11.2055 48.9186 10.1379C48.9186 9.65507 48.77 9.25367 48.4715 8.99021C48.1743 8.73779 47.9555 8.65778 47.2923 8.55433L46.3416 8.40536C45.7225 8.31294 45.2299 8.10741 44.8873 7.80808C44.4526 7.44117 44.2462 6.93494 44.2462 6.30318C44.2462 4.93622 45.2203 4.06445 46.7778 4.06445C47.7863 4.06445 48.4274 4.34033 49.1264 4.94864L48.726 5.35003C48.2224 4.90174 47.7175 4.59138 46.7448 4.59138C45.5656 4.59138 44.8543 5.24658 44.8543 6.27973C44.8543 6.7501 44.9919 7.10598 45.2781 7.34737C45.5643 7.58876 46.0348 7.78326 46.493 7.85222L47.3749 7.99016C48.1426 8.10465 48.4866 8.24259 48.8292 8.5295C49.2763 8.89641 49.5391 9.4592 49.5391 10.1144C49.5391 11.4924 48.4852 12.3766 46.7902 12.3766L46.7888 12.378Z" fill="white"/>
<path d="M53.6622 12.3784C52.8945 12.3784 52.1611 12.0804 51.6232 11.5397C50.8788 10.7935 50.8665 10.0693 50.8665 8.22093C50.8665 6.37256 50.8775 5.64838 51.6232 4.90214C52.1611 4.3628 52.8945 4.06348 53.6622 4.06348C55.1165 4.06348 56.1704 4.97111 56.4345 6.45256H55.8044C55.5636 5.32699 54.7615 4.61523 53.6622 4.61523C53.0774 4.61523 52.5285 4.83317 52.1157 5.24699C51.531 5.83184 51.4856 6.4636 51.4856 8.22093C51.4856 9.97825 51.531 10.61 52.1157 11.1949C52.5285 11.6087 53.0774 11.8266 53.6622 11.8266C54.7615 11.8266 55.587 11.1149 55.8264 9.98928H56.4332C56.1704 11.4707 55.0931 12.3784 53.6608 12.3784H53.6622Z" fill="white"/>
<path d="M62.7913 11.5397C62.2533 12.079 61.52 12.3784 60.7523 12.3784C59.9845 12.3784 59.2512 12.0804 58.7133 11.5397C57.9689 10.7935 57.9565 10.0693 57.9565 8.22093C57.9565 6.37256 57.9675 5.64838 58.7133 4.90214C59.2512 4.3628 59.9845 4.06348 60.7523 4.06348C61.52 4.06348 62.2533 4.36142 62.7913 4.90214C63.5356 5.64838 63.5466 6.37256 63.5466 8.22093C63.5466 10.0693 63.5356 10.7935 62.7913 11.5397ZM62.2987 5.24699C61.886 4.83317 61.337 4.61523 60.7523 4.61523C60.1675 4.61523 59.6186 4.83317 59.2058 5.24699C58.6211 5.83184 58.5757 6.4636 58.5757 8.22093C58.5757 9.97825 58.6211 10.61 59.2058 11.1949C59.6186 11.6087 60.1675 11.8266 60.7523 11.8266C61.337 11.8266 61.886 11.6087 62.2987 11.1949C62.8835 10.6086 62.9289 9.97687 62.9289 8.22093C62.9289 6.46498 62.8835 5.83184 62.2987 5.24699Z" fill="white"/>
<path d="M65.46 12.3088V4.13184H66.0791V11.757H70.4089V12.3088H65.46Z" fill="white"/>
<path d="M76.5262 12.3088L75.8163 10.3225H72.0134L71.3035 12.3088H70.6389L73.6397 4.13184H74.19L77.1907 12.3088H76.5262ZM73.9148 4.95946L72.2088 9.77074H75.6223L73.9162 4.95946H73.9148Z" fill="white"/>
<path d="M83.0095 12.378C81.7946 12.378 81.0393 12.0455 80.2949 11.2979L80.7297 10.862C81.463 11.5972 82.0588 11.8262 83.0439 11.8262C84.3262 11.8262 85.1393 11.2055 85.1393 10.1379C85.1393 9.65507 84.9907 9.25367 84.6921 8.99021C84.395 8.73779 84.1762 8.65778 83.5117 8.55433L82.5609 8.40536C81.9418 8.31294 81.4493 8.10741 81.1067 7.80808C80.6719 7.44117 80.4655 6.93494 80.4655 6.30318C80.4655 4.93622 81.4396 4.06445 82.9971 4.06445C84.0056 4.06445 84.6467 4.34033 85.3457 4.94864L84.9453 5.35003C84.4417 4.90174 83.9368 4.59138 82.9641 4.59138C81.785 4.59138 81.0737 5.24658 81.0737 6.27973C81.0737 6.7501 81.2112 7.10598 81.4974 7.34737C81.7836 7.58876 82.2528 7.78326 82.7109 7.85222L83.5928 7.99016C84.3606 8.10465 84.7045 8.24259 85.0471 8.5295C85.4943 8.89641 85.7571 9.4592 85.7571 10.1144C85.7571 11.4924 84.7032 12.3766 83.0081 12.3766L83.0095 12.378Z" fill="white"/>
<path d="M90.089 12.3783C88.4518 12.3783 87.2947 11.2528 87.2947 9.65682V4.13379H87.9138V9.57681C87.9138 10.9314 88.7847 11.828 90.0904 11.828C91.3961 11.828 92.267 10.9327 92.267 9.57681V4.13379H92.8861V9.65682C92.8861 11.2528 91.7291 12.3783 90.0918 12.3783H90.089Z" fill="white"/>
<path d="M97.9934 8.84104H95.6228V12.3088H95.0037V4.13184H97.9934C99.4023 4.13184 100.456 4.99257 100.456 6.48644C100.456 7.9803 99.4023 8.84104 97.9934 8.84104ZM97.9246 4.68359H95.6228V8.28928H97.9246C99.0473 8.28928 99.837 7.71546 99.837 6.48644C99.837 5.25741 99.0473 4.68359 97.9246 4.68359Z" fill="white"/>
<path d="M101.945 12.3088V4.13184H106.894V4.68359H102.564V7.90996H106.253V8.46171H102.564V11.757H106.894V12.3088H101.945Z" fill="white"/>
<path d="M113.321 12.3088L111.374 8.54171H109.129V12.3088H108.51V4.13184H111.614C112.943 4.13184 113.95 4.90153 113.95 6.32505C113.95 7.54304 113.217 8.3348 112.072 8.52929L114.042 12.3074H113.321V12.3088ZM111.534 4.68359H109.129V7.99134H111.534C112.577 7.99134 113.332 7.46303 113.332 6.33746C113.332 5.21189 112.575 4.68359 111.534 4.68359Z" fill="white"/>
<path d="M115.749 12.3088V4.13184H116.368V12.3088H115.749Z" fill="white"/>
<path d="M123.114 11.5397C122.576 12.079 121.843 12.3784 121.075 12.3784C120.307 12.3784 119.575 12.0804 119.036 11.5397C118.292 10.7935 118.281 10.0693 118.281 8.22093C118.281 6.37256 118.292 5.64838 119.036 4.90214C119.574 4.3628 120.307 4.06348 121.075 4.06348C121.843 4.06348 122.576 4.36142 123.114 4.90214C123.858 5.64838 123.871 6.37256 123.871 8.22093C123.871 10.0693 123.86 10.7935 123.114 11.5397ZM122.622 5.24699C122.209 4.83317 121.66 4.61523 121.075 4.61523C120.49 4.61523 119.941 4.83317 119.529 5.24699C118.945 5.83184 118.899 6.4636 118.899 8.22093C118.899 9.97825 118.944 10.61 119.529 11.1949C119.941 11.6087 120.49 11.8266 121.075 11.8266C121.66 11.8266 122.209 11.6087 122.622 11.1949C123.206 10.6086 123.252 9.97687 123.252 8.22093C123.252 6.46498 123.206 5.83184 122.622 5.24699Z" fill="white"/>
<path d="M130.595 12.3088L128.648 8.54171H126.402V12.3088H125.783V4.13184H128.887C130.216 4.13184 131.223 4.90153 131.223 6.32505C131.223 7.54304 130.49 8.3348 129.345 8.52929L131.316 12.3074H130.595V12.3088ZM128.807 4.68359H126.402V7.99134H128.807C129.85 7.99134 130.606 7.46303 130.606 6.33746C130.606 5.21189 129.849 4.68359 128.807 4.68359Z" fill="white"/>
<path d="M42.962 22.6416C42.4805 23.1244 41.7705 23.3879 40.923 23.3879H38.1851V15.2109H40.923C41.7705 15.2109 42.4805 15.4744 42.962 15.9572C43.7862 16.7834 43.7531 18.0814 43.7531 19.1835C43.7531 20.2857 43.7875 21.8126 42.962 22.6403V22.6416ZM42.5273 16.3944C42.0581 15.9117 41.4279 15.7627 40.7744 15.7627H38.8042V22.8361H40.7744C41.4279 22.8361 42.0567 22.6872 42.5273 22.2044C43.1808 21.5381 43.134 20.0912 43.134 19.1835C43.134 18.2759 43.1794 17.0593 42.5273 16.3931V16.3944Z" fill="white"/>
<path d="M45.6653 23.3879V15.2109H50.6142V15.7627H46.2844V18.9891H49.9731V19.5408H46.2844V22.8361H50.6142V23.3879H45.6653Z" fill="white"/>
<path d="M59.7669 21.1044C59.5935 21.8617 59.2633 22.4438 58.7749 22.8507C58.2727 23.2535 57.6784 23.4563 56.9918 23.4563C56.3713 23.4411 55.8526 23.2838 55.4371 22.9845C55.0147 22.6962 54.7079 22.3638 54.5166 21.9858C54.4589 21.8631 54.4066 21.7445 54.3598 21.6327C54.3158 21.5169 54.28 21.3706 54.2511 21.1955C54.1974 20.8658 54.1699 20.234 54.1699 19.3002C54.1699 18.3664 54.1974 17.7153 54.2511 17.3939C54.3089 17.0725 54.3969 16.8132 54.5166 16.6145C54.7079 16.2366 55.0147 15.9 55.4371 15.6048C55.8526 15.3055 56.3713 15.1524 56.9918 15.1455C57.754 15.1538 58.3745 15.3869 58.8561 15.8449C59.3363 16.3083 59.6403 16.8808 59.7669 17.5636H58.497C58.3993 17.2339 58.2218 16.9525 57.9659 16.7208C57.6976 16.5001 57.3729 16.3856 56.989 16.3787C56.707 16.3869 56.4648 16.4435 56.2612 16.5525C56.0548 16.6656 55.8884 16.8049 55.7618 16.9732C55.6063 17.1497 55.5031 17.376 55.4522 17.6532C55.3944 17.9456 55.3655 18.4946 55.3655 19.3002C55.3655 20.1058 55.3944 20.6506 55.4522 20.9361C55.5031 21.2203 55.6063 21.452 55.7618 21.6272C55.8884 21.7955 56.0548 21.932 56.2612 22.0369C56.4635 22.161 56.7056 22.2217 56.989 22.2217C57.6618 22.2217 58.1654 21.8493 58.4984 21.103H59.7669V21.1044Z" fill="white"/>
<path d="M60.2556 19.3002C60.2556 18.3484 60.2831 17.7112 60.3368 17.3898C60.3946 17.067 60.4826 16.8077 60.6023 16.609C60.7936 16.2325 61.1004 15.8973 61.5228 15.6035C61.9383 15.3055 62.4556 15.1524 63.0775 15.1455C63.7063 15.1538 64.2291 15.3069 64.6473 15.6048C65.0628 15.9 65.3614 16.2366 65.5458 16.6145C65.6792 16.8132 65.7714 17.0725 65.8223 17.3939C65.8691 17.7153 65.8925 18.3512 65.8925 19.3002C65.8925 20.2492 65.8691 20.8672 65.8223 21.1955C65.7714 21.5251 65.6792 21.7886 65.5458 21.9858C65.3614 22.3638 65.0615 22.6962 64.6473 22.9845C64.2291 23.2838 63.7049 23.4411 63.0775 23.4563C62.457 23.4411 61.9383 23.2838 61.5228 22.9845C61.1004 22.6962 60.7936 22.3638 60.6023 21.9858C60.5445 21.8631 60.4923 21.7445 60.4455 21.6327C60.4015 21.5169 60.3657 21.3706 60.3368 21.1955C60.2831 20.8658 60.2556 20.234 60.2556 19.3002ZM61.4512 19.3002C61.4512 20.1058 61.4801 20.6506 61.5379 20.9361C61.5888 21.2203 61.692 21.452 61.8475 21.6272C61.9741 21.7955 62.1405 21.932 62.3469 22.0369C62.5492 22.161 62.7927 22.2217 63.0747 22.2217C63.3568 22.2217 63.6086 22.1596 63.8177 22.0369C64.0172 21.932 64.1754 21.7955 64.2951 21.6272C64.4506 21.4506 64.5579 21.2203 64.6157 20.9361C64.6694 20.652 64.6969 20.1058 64.6969 19.3002C64.6969 18.4946 64.6694 17.9456 64.6157 17.6532C64.5579 17.376 64.4506 17.1497 64.2951 16.9732C64.1754 16.8049 64.0172 16.6642 63.8177 16.5525C63.6072 16.4435 63.3595 16.3856 63.0747 16.3787C62.7927 16.3869 62.5505 16.4435 62.3469 16.5525C62.1405 16.6656 61.9741 16.8049 61.8475 16.9732C61.692 17.1497 61.5888 17.376 61.5379 17.6532C61.4801 17.9456 61.4512 18.4946 61.4512 19.3002Z" fill="white"/>
<path d="M67.2229 15.2119H68.3497L70.6144 20.5418L72.8364 15.2119H73.9673V23.3875H72.7717V18.2879H72.7442L71.0904 22.215H70.0929L68.4405 18.2879H68.4185V23.3875H67.2229V15.2119Z" fill="white"/>
<path d="M75.4722 15.2119H76.6678V20.488C76.6747 21.0453 76.8302 21.4702 77.1343 21.7626C77.4314 22.0702 77.8126 22.2233 78.279 22.2233C78.7454 22.2233 79.1306 22.0702 79.4347 21.7626C79.7319 21.4702 79.8832 21.0467 79.8901 20.488V15.2119H81.0857V20.6177C81.072 21.477 80.8023 22.1598 80.2781 22.6647C79.7511 23.1847 79.0838 23.4482 78.2776 23.4551C77.4865 23.4482 76.8247 23.1847 76.2936 22.6647C75.7515 22.1598 75.4764 21.4784 75.4695 20.6205V15.2119H75.4722Z" fill="white"/>
<path d="M82.5469 15.2119H83.6737L87.2509 21.0246H87.2729V15.2119H88.4685V23.3875H87.3362L83.7645 17.5748H83.7425V23.3875H82.5469V15.2119Z" fill="white"/>
<path d="M90.0977 15.2119H91.2933V23.3875H90.0977V15.2119Z" fill="white"/>
<path d="M98.0911 21.1044C97.9178 21.8617 97.5875 22.4438 97.0991 22.8507C96.5969 23.2535 96.0026 23.4563 95.316 23.4563C94.6955 23.4411 94.1768 23.2838 93.7613 22.9845C93.3389 22.6962 93.0321 22.3638 92.8409 21.9858C92.7831 21.8631 92.7308 21.7445 92.684 21.6327C92.64 21.5169 92.6042 21.3706 92.5753 21.1955C92.5217 20.8658 92.4941 20.234 92.4941 19.3002C92.4941 18.3664 92.5217 17.7153 92.5753 17.3939C92.6331 17.0725 92.7212 16.8132 92.8409 16.6145C93.0321 16.2366 93.3389 15.9 93.7613 15.6048C94.1768 15.3055 94.6955 15.1524 95.316 15.1455C96.0782 15.1538 96.7001 15.3869 97.1803 15.8449C97.6605 16.3083 97.9645 16.8808 98.0897 17.5636H96.8198C96.7221 17.2339 96.5447 16.9525 96.2887 16.7208C96.0205 16.5001 95.6957 16.3856 95.3119 16.3787C95.0298 16.3869 94.7877 16.4435 94.5841 16.5525C94.3777 16.6656 94.2112 16.8049 94.0846 16.9732C93.9292 17.1497 93.826 17.376 93.7751 17.6532C93.7173 17.9456 93.6884 18.4946 93.6884 19.3002C93.6884 20.1058 93.7173 20.6506 93.7751 20.9361C93.826 21.2203 93.9292 21.452 94.0846 21.6272C94.2112 21.7955 94.3777 21.932 94.5841 22.0369C94.7863 22.161 95.0298 22.2217 95.3119 22.2217C95.9847 22.2217 96.4882 21.8493 96.8212 21.103H98.0897L98.0911 21.1044Z" fill="white"/>
<path d="M102.897 21.5604H99.9015L99.2948 23.3894H98.0276L100.899 15.2139H101.902L104.773 23.3894H103.512L102.899 21.5604H102.897ZM102.554 20.461L101.411 16.8843H101.389L100.245 20.461H102.553H102.554Z" fill="white"/>
<path d="M107.934 23.4559C107.357 23.4034 106.876 23.231 106.493 22.94C106.106 22.6475 105.817 22.3303 105.626 21.9868C105.568 21.8641 105.516 21.7454 105.469 21.6337C105.426 21.5178 105.389 21.3716 105.36 21.1964C105.307 20.8668 105.279 20.235 105.279 19.3012C105.279 18.3673 105.307 17.7163 105.36 17.3949C105.418 17.0735 105.506 16.8142 105.626 16.6155C105.817 16.2376 106.124 15.901 106.546 15.6058C106.962 15.3065 107.48 15.1534 108.101 15.1465C108.863 15.1548 109.485 15.3879 109.965 15.8458C110.445 16.3093 110.749 16.8817 110.875 17.5645H109.605C109.507 17.2349 109.33 16.9535 109.074 16.7217C108.805 16.501 108.481 16.3865 108.097 16.3796C107.815 16.3879 107.573 16.4445 107.369 16.5534C107.163 16.6666 106.996 16.8059 106.87 16.9742C106.714 17.1507 106.611 17.3769 106.56 17.6542C106.502 17.9466 106.473 18.4956 106.473 19.3012C106.473 20.1067 106.502 20.6516 106.56 20.9371C106.611 21.2213 106.714 21.453 106.87 21.6282C106.996 21.7965 107.163 21.933 107.369 22.0379C107.571 22.162 107.813 22.2227 108.097 22.2227C108.77 22.2227 109.272 21.8503 109.605 21.104H110.875C110.532 22.482 109.742 23.2572 108.508 23.4324L108.042 24.0711H108.064C108.146 24.0407 108.248 24.0269 108.366 24.0269C108.676 24.0269 108.915 24.1111 109.085 24.2793C109.254 24.4476 109.338 24.6532 109.338 24.8959C109.331 25.2656 109.197 25.536 108.937 25.7042C108.673 25.8877 108.351 25.9787 107.973 25.9787C107.611 25.9718 107.237 25.8808 106.85 25.7056L107.051 25.227C107.306 25.3318 107.564 25.3884 107.83 25.3966C108.247 25.3966 108.463 25.2353 108.478 24.9111C108.478 24.7635 108.427 24.6573 108.325 24.5883C108.219 24.5207 108.089 24.4863 107.933 24.4863C107.787 24.4794 107.643 24.5207 107.497 24.6104L107.245 24.3911L107.933 23.4559H107.934Z" fill="white"/>
<path d="M115.682 21.5602H112.686L112.08 23.3892H110.812L113.684 15.2136H114.687L117.558 23.3892H116.297L115.684 21.5602H115.682ZM112.32 14.695C112.382 14.2908 112.523 13.9667 112.743 13.7198C112.956 13.4839 113.234 13.3667 113.577 13.3667C113.717 13.3667 113.853 13.386 113.982 13.4232C114.116 13.4605 114.245 13.5101 114.372 13.5694C114.505 13.6329 114.632 13.6839 114.75 13.7211C114.859 13.7736 114.969 13.7998 115.08 13.7998C115.192 13.8081 115.301 13.7736 115.405 13.6991C115.499 13.6315 115.563 13.4977 115.6 13.2949H116.266C116.215 13.6577 116.094 13.9639 115.903 14.2136C115.708 14.4826 115.423 14.6205 115.047 14.6288C114.914 14.6288 114.776 14.6026 114.636 14.5502C114.487 14.5088 114.347 14.4619 114.214 14.4095C113.936 14.2784 113.681 14.2095 113.45 14.2026C113.37 14.2026 113.275 14.2329 113.162 14.2922C113.044 14.3708 112.984 14.506 112.984 14.6964H112.318L112.32 14.695ZM115.339 20.4608L114.196 16.8841H114.174L113.03 20.4608H115.338H115.339Z" fill="white"/>
<path d="M118.064 19.3002C118.064 18.3484 118.092 17.7112 118.145 17.3898C118.203 17.067 118.291 16.8077 118.411 16.609C118.602 16.2325 118.909 15.8973 119.331 15.6035C119.747 15.3055 120.264 15.1524 120.886 15.1455C121.515 15.1538 122.038 15.3069 122.456 15.6048C122.871 15.9 123.17 16.2366 123.354 16.6145C123.488 16.8132 123.58 17.0725 123.631 17.3939C123.678 17.7153 123.701 18.3512 123.701 19.3002C123.701 20.2492 123.678 20.8672 123.631 21.1955C123.58 21.5251 123.488 21.7886 123.354 21.9858C123.17 22.3638 122.87 22.6962 122.456 22.9845C122.038 23.2838 121.513 23.4411 120.886 23.4563C120.266 23.4411 119.747 23.2838 119.331 22.9845C118.909 22.6962 118.602 22.3638 118.411 21.9858C118.353 21.8631 118.301 21.7445 118.254 21.6327C118.21 21.5169 118.174 21.3706 118.145 21.1955C118.092 20.8658 118.064 20.234 118.064 19.3002ZM119.26 19.3002C119.26 20.1058 119.289 20.6506 119.347 20.9361C119.397 21.2203 119.501 21.452 119.656 21.6272C119.783 21.7955 119.949 21.932 120.156 22.0369C120.358 22.161 120.6 22.2217 120.883 22.2217C121.167 22.2217 121.417 22.1596 121.626 22.0369C121.826 21.932 121.984 21.7955 122.104 21.6272C122.259 21.4506 122.367 21.2203 122.424 20.9361C122.478 20.652 122.505 20.1058 122.505 19.3002C122.505 18.4946 122.478 17.9456 122.424 17.6532C122.367 17.376 122.259 17.1497 122.104 16.9732C121.984 16.8049 121.824 16.6642 121.626 16.5525C121.416 16.4435 121.168 16.3856 120.883 16.3787C120.601 16.3869 120.359 16.4435 120.156 16.5525C119.949 16.6656 119.783 16.8049 119.656 16.9732C119.501 17.1497 119.397 17.376 119.347 17.6532C119.289 17.9456 119.26 18.4946 119.26 19.3002Z" fill="white"/>
<path d="M127.59 21.4075C128.219 21.9427 128.967 22.2144 129.835 22.2227C130.862 22.2075 131.382 21.8282 131.397 21.0833C131.405 20.4736 131.061 20.1067 130.368 19.984C130.05 19.9398 129.7 19.8888 129.322 19.8322C128.642 19.7164 128.126 19.4557 127.771 19.0529C127.407 18.6377 127.224 18.1328 127.224 17.5369C127.224 16.8224 127.454 16.2458 127.912 15.8086C128.356 15.3741 128.985 15.1534 129.801 15.1465C130.782 15.1686 131.636 15.4499 132.361 15.9907L131.695 17.0086C131.102 16.6045 130.45 16.3948 129.739 16.3796C129.37 16.3796 129.063 16.4748 128.817 16.6652C128.561 16.8638 128.429 17.159 128.421 17.5521C128.421 17.788 128.509 18.0018 128.686 18.1922C128.864 18.3866 129.147 18.5218 129.537 18.5963C129.754 18.6336 130.05 18.6763 130.425 18.726C131.166 18.8308 131.713 19.1053 132.067 19.5508C132.418 19.9881 132.592 20.4971 132.592 21.0778C132.553 22.642 131.629 23.4352 129.82 23.4572C128.651 23.4572 127.645 23.0848 126.804 22.3413L127.588 21.4089L127.59 21.4075Z" fill="white"/>
<path d="M133.51 19.3002C133.51 18.3484 133.537 17.7112 133.591 17.3898C133.649 17.067 133.737 16.8077 133.856 16.609C134.048 16.2325 134.355 15.8973 134.777 15.6035C135.192 15.3055 135.71 15.1524 136.332 15.1455C136.96 15.1538 137.483 15.3069 137.901 15.6048C138.317 15.9 138.616 16.2366 138.8 16.6145C138.933 16.8132 139.026 17.0725 139.076 17.3939C139.123 17.7153 139.147 18.3512 139.147 19.3002C139.147 20.2492 139.123 20.8672 139.076 21.1955C139.026 21.5251 138.933 21.7886 138.8 21.9858C138.616 22.3638 138.316 22.6962 137.901 22.9845C137.483 23.2838 136.959 23.4411 136.332 23.4563C135.711 23.4411 135.192 23.2838 134.777 22.9845C134.355 22.6962 134.048 22.3638 133.856 21.9858C133.799 21.8631 133.746 21.7445 133.7 21.6327C133.656 21.5169 133.62 21.3706 133.591 21.1955C133.537 20.8658 133.51 20.234 133.51 19.3002ZM134.705 19.3002C134.705 20.1058 134.734 20.6506 134.792 20.9361C134.843 21.2203 134.946 21.452 135.102 21.6272C135.228 21.7955 135.395 21.932 135.601 22.0369C135.803 22.161 136.045 22.2217 136.329 22.2217C136.612 22.2217 136.863 22.1596 137.072 22.0369C137.271 21.932 137.43 21.7955 137.549 21.6272C137.705 21.4506 137.812 21.2203 137.87 20.9361C137.924 20.652 137.951 20.1058 137.951 19.3002C137.951 18.4946 137.924 17.9456 137.87 17.6532C137.812 17.376 137.705 17.1497 137.549 16.9732C137.43 16.8049 137.27 16.6642 137.072 16.5525C136.861 16.4435 136.614 16.3856 136.329 16.3787C136.047 16.3869 135.805 16.4435 135.601 16.5525C135.395 16.6656 135.228 16.8049 135.102 16.9732C134.946 17.1497 134.843 17.376 134.792 17.6532C134.734 17.9456 134.705 18.4946 134.705 19.3002Z" fill="white"/>
<path d="M145.806 21.1044C145.632 21.8617 145.302 22.4438 144.814 22.8507C144.312 23.2535 143.717 23.4563 143.031 23.4563C142.41 23.4411 141.891 23.2838 141.476 22.9845C141.054 22.6962 140.747 22.3638 140.555 21.9858C140.498 21.8631 140.445 21.7445 140.399 21.6327C140.355 21.5169 140.319 21.3706 140.29 21.1955C140.236 20.8658 140.209 20.234 140.209 19.3002C140.209 18.3664 140.236 17.7153 140.29 17.3939C140.348 17.0725 140.436 16.8132 140.555 16.6145C140.747 16.2366 141.054 15.9 141.476 15.6048C141.891 15.3055 142.41 15.1524 143.031 15.1455C143.793 15.1538 144.415 15.3869 144.895 15.8449C145.375 16.3083 145.679 16.8808 145.804 17.5636H144.534C144.437 17.2339 144.259 16.9525 144.003 16.7208C143.735 16.5001 143.41 16.3856 143.026 16.3787C142.744 16.3869 142.502 16.4435 142.299 16.5525C142.092 16.6656 141.926 16.8049 141.799 16.9732C141.644 17.1497 141.541 17.376 141.49 17.6532C141.432 17.9456 141.403 18.4946 141.403 19.3002C141.403 20.1058 141.432 20.6506 141.49 20.9361C141.541 21.2203 141.644 21.452 141.799 21.6272C141.926 21.7955 142.092 21.932 142.299 22.0369C142.501 22.161 142.744 22.2217 143.026 22.2217C143.699 22.2217 144.203 21.8493 144.536 21.103H145.804L145.806 21.1044Z" fill="white"/>
<path d="M146.562 15.2119H147.758V23.3875H146.562V15.2119Z" fill="white"/>
<path d="M153.279 21.5604H150.283L149.677 23.3894H148.409L151.281 15.2139H152.284L155.155 23.3894H153.894L153.281 21.5604H153.279ZM152.937 20.461L151.794 16.8843H151.772L150.629 20.461H152.936H152.937Z" fill="white"/>
<path d="M155.93 15.2119H157.125V22.2219H160.976V23.3875H155.93V15.2119Z" fill="white"/>
<path d="M5.66539 31.4066C5.59659 31.4066 5.52918 31.3846 5.47139 31.3432C5.38471 31.2811 5.33381 31.1804 5.33381 31.0728L5.33105 25.2932C5.33105 25.1498 5.42186 25.0229 5.55807 24.9773L20.226 20.0654C20.3292 20.0323 20.4421 20.0488 20.5301 20.115L25.8629 24.1249C25.962 24.1994 26.0115 24.3221 25.9909 24.4449C25.9716 24.5677 25.8863 24.6684 25.768 24.707L5.77133 31.3887C5.73693 31.3997 5.70116 31.4053 5.66676 31.4053L5.66539 31.4066ZM5.99422 25.5332L5.99697 30.6121L24.9562 24.2766L20.2701 20.7537L5.99422 25.5346V25.5332Z" fill="white"/>
<path d="M5.66577 31.4075C5.5956 31.4075 5.52543 31.3855 5.46627 31.3413L0.133458 27.3315C0.0495308 27.268 0 27.1701 0 27.0652V4.34413C0 4.24757 0.0412757 4.15653 0.11282 4.09446C0.184364 4.03239 0.28205 4.00204 0.374232 4.01446L5.70704 4.72484C5.87214 4.74691 5.99597 4.8876 5.99597 5.0545V31.0751C5.99597 31.2006 5.92443 31.3165 5.81298 31.373C5.7662 31.3965 5.7153 31.4075 5.66439 31.4075H5.66577ZM0.664537 26.8983L5.33281 30.4089V5.34556L0.664537 4.72484V26.8997V26.8983Z" fill="white"/>
<path d="M25.6636 24.7242C25.5934 24.7242 25.5232 24.7022 25.4641 24.658L20.1313 20.6482C20.0473 20.5847 19.9978 20.4868 19.9978 20.382V7.01579C19.9978 6.91096 20.0473 6.81302 20.1313 6.74957L25.4641 2.73972C25.5645 2.66523 25.6993 2.65282 25.8122 2.70799C25.925 2.76455 25.9952 2.87904 25.9952 3.00594V24.3904C25.9952 24.516 25.9236 24.6318 25.8122 24.6884C25.7654 24.7118 25.7145 24.7229 25.6636 24.7229V24.7242ZM20.6623 20.2164L25.3306 23.727V3.67356L20.6623 7.18407V20.2178V20.2164Z" fill="white"/>
<path d="M20.3306 7.34925C20.3169 7.34925 20.3017 7.34925 20.2866 7.34649L0.289945 4.67325C0.156487 4.65532 0.0464186 4.55877 0.0133981 4.42634C-0.0209982 4.2953 0.0271566 4.15737 0.135849 4.07598L5.46866 0.0661277C5.53745 0.0150907 5.62275 -0.00835759 5.71218 0.00267744L25.7102 2.67591C25.8437 2.69385 25.9537 2.7904 25.9868 2.92282C26.0212 3.05386 25.973 3.1918 25.8643 3.27318L20.5315 7.28304C20.4737 7.3258 20.4036 7.34925 20.332 7.34925H20.3306ZM1.1815 4.12012L20.2398 6.66783L24.8145 3.22766L5.75621 0.679953L1.1815 4.12012Z" fill="white"/>
</svg>
