<svg width="285" height="20" viewBox="0 0 285 20" fill="none" xmlns="http://www.w3.org/2000/svg">
<g clip-path="url(#clip0_1489_1193)">
<path d="M106.519 7.5565V0.779297H107.652V7.5565H106.519ZM107.464 7.5565V6.56181H110.533V7.5565H107.464Z" fill="white"/>
<path d="M113.006 7.68567C112.634 7.68567 112.311 7.62267 112.034 7.49667C111.757 7.37067 111.542 7.18498 111.393 6.9396C111.241 6.69429 111.167 6.40248 111.167 6.06099C111.167 5.7029 111.255 5.40449 111.427 5.16908C111.599 4.93367 111.849 4.75794 112.169 4.63857C112.489 4.52252 112.874 4.46284 113.322 4.46284H114.597V5.17902H113.296C112.962 5.17902 112.706 5.2586 112.53 5.41444C112.354 5.57359 112.267 5.77916 112.267 6.03115C112.267 6.28317 112.354 6.48873 112.53 6.63792C112.706 6.79042 112.962 6.86667 113.296 6.86667C113.491 6.86667 113.677 6.83023 113.852 6.7606C114.027 6.69098 114.176 6.5716 114.291 6.40248C114.409 6.23672 114.473 6.0013 114.483 5.69627L114.766 6.05767C114.736 6.4091 114.648 6.70754 114.507 6.94298C114.365 7.18167 114.169 7.36404 113.92 7.49004C113.67 7.61604 113.366 7.67904 113.009 7.67904L113.006 7.68567ZM114.658 7.55635V6.06099H114.479V4.37C114.479 4.06165 114.399 3.82624 114.233 3.66377C114.068 3.5013 113.829 3.42173 113.505 3.42173C113.329 3.42173 113.134 3.42173 112.918 3.43168C112.706 3.43831 112.493 3.44494 112.291 3.45489C112.085 3.46484 111.906 3.47478 111.747 3.48804V2.54972C111.886 2.53645 112.037 2.5265 112.206 2.51656C112.371 2.50661 112.547 2.49998 112.726 2.49335C112.904 2.48672 113.076 2.4834 113.242 2.4834C113.757 2.4834 114.186 2.54972 114.527 2.67902C114.867 2.80834 115.121 3.0139 115.286 3.29574C115.451 3.57757 115.536 3.95224 115.536 4.42305V7.55304H114.658V7.55635Z" fill="white"/>
<path d="M119.911 7.72556C119.496 7.72556 119.124 7.63606 118.801 7.457C118.477 7.278 118.221 7.01606 118.035 6.67781C117.849 6.33631 117.748 5.92519 117.728 5.44442H117.954V7.55981H117.077V0.779297H118.183V4.12147L117.853 4.72492C117.873 4.19442 117.978 3.75344 118.17 3.41193C118.362 3.0671 118.615 2.81179 118.929 2.64601C119.243 2.48023 119.597 2.39402 119.988 2.39402C120.346 2.39402 120.673 2.46033 120.966 2.58965C121.259 2.71895 121.509 2.90132 121.722 3.13341C121.934 3.36551 122.093 3.63739 122.204 3.94575C122.316 4.2541 122.369 4.58898 122.369 4.94707V5.13275C122.369 5.49083 122.312 5.82572 122.201 6.13407C122.086 6.44243 121.921 6.71762 121.705 6.95637C121.489 7.19506 121.229 7.38075 120.926 7.51668C120.622 7.65262 120.285 7.72225 119.914 7.72225L119.911 7.72556ZM119.711 6.78725C120.018 6.78725 120.291 6.71431 120.524 6.56512C120.757 6.41593 120.939 6.21033 121.068 5.9484C121.196 5.68646 121.259 5.38474 121.259 5.04323C121.259 4.70172 121.192 4.39336 121.061 4.13805C120.929 3.88275 120.747 3.68049 120.518 3.53792C120.288 3.39535 120.018 3.32572 119.711 3.32572C119.435 3.32572 119.175 3.38872 118.936 3.5114C118.696 3.63407 118.504 3.81312 118.359 4.04522C118.214 4.27731 118.143 4.55582 118.143 4.88407V5.28195C118.143 5.59694 118.217 5.86882 118.366 6.09428C118.514 6.31975 118.706 6.49218 118.946 6.60818C119.185 6.72425 119.438 6.78393 119.711 6.78393V6.78725Z" fill="white"/>
<path d="M126.023 7.72586C125.574 7.72586 125.183 7.65293 124.842 7.50705C124.501 7.36118 124.214 7.16886 123.982 6.9268C123.749 6.6848 123.574 6.41286 123.452 6.10454C123.334 5.7995 123.273 5.4812 123.273 5.15295V4.96727C123.273 4.63902 123.334 4.32072 123.459 4.01236C123.58 3.70401 123.763 3.4255 123.999 3.18013C124.234 2.93478 124.521 2.74247 124.862 2.5999C125.203 2.45732 125.591 2.3877 126.023 2.3877C126.454 2.3877 126.842 2.45732 127.179 2.5999C127.517 2.74247 127.803 2.93478 128.043 3.18013C128.283 3.4255 128.464 3.70069 128.586 4.01236C128.708 4.32072 128.771 4.63902 128.771 4.96727V5.15295C128.771 5.4812 128.711 5.7995 128.593 6.10454C128.474 6.40955 128.296 6.6848 128.063 6.9268C127.831 7.16886 127.544 7.36118 127.203 7.50705C126.863 7.65293 126.471 7.72586 126.023 7.72586ZM126.023 6.77761C126.37 6.77761 126.663 6.70136 126.909 6.54886C127.156 6.3963 127.341 6.19075 127.473 5.93213C127.601 5.6735 127.665 5.38173 127.665 5.06011C127.665 4.73849 127.598 4.43676 127.466 4.17815C127.334 3.91953 127.146 3.71395 126.899 3.56143C126.653 3.40891 126.36 3.33265 126.023 3.33265C125.685 3.33265 125.388 3.40891 125.146 3.56143C124.899 3.71395 124.71 3.91953 124.579 4.17815C124.447 4.43676 124.38 4.73186 124.38 5.06011C124.38 5.38836 124.444 5.6735 124.572 5.93213C124.7 6.19075 124.889 6.3963 125.135 6.54886C125.381 6.70136 125.678 6.77761 126.023 6.77761Z" fill="white"/>
<path d="M130.036 7.55676V2.55343H130.913V4.6423H130.876C130.876 3.9228 131.038 3.38898 131.359 3.03089C131.679 2.67611 132.155 2.49707 132.786 2.49707H132.964V3.45198H132.624C132.144 3.45198 131.777 3.57797 131.524 3.82665C131.267 4.07863 131.142 4.43341 131.142 4.8976V7.55345H130.036V7.55676Z" fill="white"/>
<path d="M135.342 7.68567C134.971 7.68567 134.647 7.62267 134.371 7.49667C134.094 7.37067 133.878 7.18498 133.73 6.9396C133.578 6.69429 133.504 6.40248 133.504 6.06099C133.504 5.7029 133.592 5.40449 133.764 5.16908C133.936 4.93367 134.186 4.75794 134.506 4.63857C134.826 4.52252 135.211 4.46284 135.659 4.46284H136.934V5.17902H135.632C135.298 5.17902 135.042 5.2586 134.867 5.41444C134.691 5.57359 134.604 5.77916 134.604 6.03115C134.604 6.28317 134.691 6.48873 134.867 6.63792C135.042 6.79042 135.298 6.86667 135.632 6.86667C135.828 6.86667 136.014 6.83023 136.189 6.7606C136.364 6.69098 136.512 6.5716 136.627 6.40248C136.746 6.23672 136.809 6.0013 136.82 5.69627L137.103 6.05767C137.072 6.4091 136.985 6.70754 136.843 6.94298C136.702 7.18167 136.506 7.36404 136.256 7.49004C136.007 7.61604 135.703 7.67904 135.346 7.67904L135.342 7.68567ZM136.995 7.55635V6.06099H136.816V4.37C136.816 4.06165 136.736 3.82624 136.57 3.66377C136.405 3.5013 136.166 3.42173 135.841 3.42173C135.666 3.42173 135.471 3.42173 135.254 3.43168C135.042 3.43831 134.829 3.44494 134.627 3.45489C134.421 3.46484 134.242 3.47478 134.084 3.48804V2.54972C134.222 2.53645 134.374 2.5265 134.543 2.51656C134.708 2.50661 134.884 2.49998 135.062 2.49335C135.241 2.48672 135.413 2.4834 135.578 2.4834C136.094 2.4834 136.523 2.54972 136.864 2.67902C137.204 2.80834 137.457 3.0139 137.622 3.29574C137.787 3.57757 137.872 3.95224 137.872 4.42305V7.55304H136.995V7.55635Z" fill="white"/>
<path d="M138.716 3.36166V2.55264H142.267V3.36166H138.716ZM141.502 7.61234C141.08 7.61234 140.722 7.55596 140.436 7.44652C140.146 7.33377 139.926 7.14484 139.778 6.86959C139.629 6.5944 139.555 6.22969 139.555 5.7655V1.09375H140.604V5.85502C140.604 6.11364 140.675 6.3159 140.817 6.45515C140.959 6.5944 141.157 6.66402 141.417 6.66402H142.267V7.61234H141.502Z" fill="white"/>
<path d="M145.826 7.72544C145.378 7.72544 144.986 7.6525 144.645 7.50663C144.304 7.36075 144.018 7.16844 143.785 6.92637C143.553 6.68437 143.377 6.41244 143.256 6.10411C143.138 5.79907 143.077 5.48077 143.077 5.15252V4.96684C143.077 4.63859 143.138 4.32029 143.263 4.01194C143.384 3.70358 143.566 3.42507 143.802 3.17971C144.038 2.93435 144.325 2.74204 144.666 2.59947C145.006 2.45689 145.394 2.38727 145.826 2.38727C146.258 2.38727 146.646 2.45689 146.983 2.59947C147.32 2.74204 147.607 2.93435 147.846 3.17971C148.086 3.42507 148.268 3.70026 148.389 4.01194C148.511 4.32029 148.575 4.63859 148.575 4.96684V5.15252C148.575 5.48077 148.514 5.79907 148.396 6.10411C148.278 6.40912 148.099 6.68437 147.867 6.92637C147.634 7.16844 147.347 7.36075 147.006 7.50663C146.666 7.6525 146.274 7.72544 145.826 7.72544ZM145.826 6.77719C146.173 6.77719 146.467 6.70094 146.713 6.54844C146.959 6.39587 147.145 6.19032 147.276 5.9317C147.404 5.67307 147.469 5.3813 147.469 5.05968C147.469 4.73806 147.401 4.43634 147.269 4.17772C147.138 3.9191 146.949 3.71352 146.703 3.56101C146.457 3.40849 146.163 3.33223 145.826 3.33223C145.489 3.33223 145.192 3.40849 144.949 3.56101C144.703 3.71352 144.514 3.9191 144.383 4.17772C144.251 4.43634 144.183 4.73143 144.183 5.05968C144.183 5.38793 144.248 5.67307 144.376 5.9317C144.504 6.19032 144.693 6.39587 144.939 6.54844C145.185 6.70094 145.482 6.77719 145.826 6.77719ZM145.269 1.87666L146.109 0H147.263L146.204 1.87666H145.269Z" fill="white"/>
<path d="M149.84 7.55676V2.55343H150.717V4.6423H150.68C150.68 3.9228 150.842 3.38898 151.162 3.03089C151.483 2.67611 151.958 2.49707 152.589 2.49707H152.768V3.45198H152.427C151.948 3.45198 151.581 3.57797 151.328 3.82665C151.071 4.07863 150.946 4.43341 150.946 4.8976V7.55345H149.84V7.55676Z" fill="white"/>
<path d="M153.25 3.38884V2.5533H155.102V3.38884H153.25ZM154.356 1.85701C154.131 1.85701 153.962 1.79733 153.851 1.68129C153.739 1.56524 153.685 1.41272 153.685 1.22704C153.685 1.04136 153.739 0.898792 153.851 0.776111C153.962 0.656749 154.131 0.59375 154.356 0.59375C154.583 0.59375 154.761 0.65343 154.873 0.776111C154.984 0.895474 155.038 1.04799 155.038 1.22704C155.038 1.40609 154.984 1.56524 154.873 1.68129C154.761 1.79733 154.589 1.85701 154.356 1.85701ZM153.996 7.55662V2.5533H155.102V7.55662H153.996Z" fill="white"/>
<path d="M159.133 7.72586C158.684 7.72586 158.293 7.65293 157.952 7.50705C157.611 7.36118 157.325 7.16886 157.092 6.9268C156.859 6.6848 156.684 6.41286 156.563 6.10454C156.444 5.7995 156.384 5.4812 156.384 5.15295V4.96727C156.384 4.63902 156.444 4.32072 156.569 4.01236C156.691 3.70401 156.873 3.4255 157.109 3.18013C157.345 2.93478 157.632 2.74247 157.973 2.5999C158.313 2.45732 158.701 2.3877 159.133 2.3877C159.564 2.3877 159.953 2.45732 160.29 2.5999C160.627 2.74247 160.914 2.93478 161.153 3.18013C161.393 3.4255 161.575 3.70069 161.696 4.01236C161.818 4.32072 161.882 4.63902 161.882 4.96727V5.15295C161.882 5.4812 161.821 5.7995 161.703 6.10454C161.585 6.40955 161.406 6.6848 161.174 6.9268C160.941 7.16886 160.654 7.36118 160.313 7.50705C159.973 7.65293 159.581 7.72586 159.133 7.72586ZM159.133 6.77761C159.48 6.77761 159.774 6.70136 160.02 6.54886C160.266 6.3963 160.452 6.19075 160.583 5.93213C160.711 5.6735 160.776 5.38173 160.776 5.06011C160.776 4.73849 160.708 4.43676 160.576 4.17815C160.445 3.91953 160.256 3.71395 160.01 3.56143C159.764 3.40891 159.47 3.33265 159.133 3.33265C158.796 3.33265 158.499 3.40891 158.256 3.56143C158.009 3.71395 157.821 3.91953 157.689 4.17815C157.558 4.43676 157.49 4.73186 157.49 5.06011C157.49 5.38836 157.554 5.6735 157.683 5.93213C157.811 6.19075 157.999 6.3963 158.246 6.54886C158.492 6.70136 158.789 6.77761 159.133 6.77761Z" fill="white"/>
<path d="M167.36 7.72556C166.996 7.72556 166.661 7.65925 166.365 7.52993C166.064 7.40062 165.805 7.21831 165.582 6.98287C165.359 6.7475 165.187 6.47556 165.066 6.16723C164.948 5.85888 164.887 5.52068 164.887 5.15596V4.98023C164.887 4.62214 164.944 4.28394 165.062 3.97227C165.181 3.6606 165.346 3.3854 165.559 3.14999C165.771 2.91458 166.031 2.73222 166.327 2.59628C166.624 2.46033 166.958 2.39733 167.322 2.39733C167.714 2.39733 168.065 2.48023 168.375 2.6427C168.686 2.80848 168.938 3.05715 169.131 3.39535C169.323 3.73354 169.427 4.16127 169.447 4.68182L169.07 4.17121V0.779297H170.176V7.5565H169.299V5.38473H169.546C169.525 5.92187 169.414 6.36618 169.212 6.711C169.009 7.05581 168.742 7.31443 168.422 7.47693C168.102 7.63937 167.747 7.72225 167.363 7.72225L167.36 7.72556ZM167.569 6.78725C167.852 6.78725 168.109 6.72425 168.338 6.60156C168.567 6.47887 168.753 6.29656 168.894 6.05782C169.036 5.81908 169.107 5.54057 169.107 5.21895V4.82108C169.107 4.50609 169.036 4.23752 168.891 4.01206C168.746 3.78991 168.557 3.6175 168.324 3.50145C168.092 3.3854 167.836 3.32572 167.559 3.32572C167.249 3.32572 166.979 3.39867 166.742 3.54455C166.506 3.69044 166.321 3.8927 166.189 4.15132C166.057 4.40993 165.99 4.71498 165.99 5.0598C165.99 5.40463 166.057 5.71962 166.192 5.97824C166.327 6.23686 166.516 6.43912 166.756 6.57837C166.996 6.71762 167.266 6.78725 167.569 6.78725Z" fill="white"/>
<path d="M174.018 7.72548C173.576 7.72548 173.192 7.65254 172.864 7.50336C172.538 7.35417 172.271 7.15854 172.062 6.91317C171.853 6.66779 171.698 6.39261 171.593 6.08758C171.489 5.78254 171.438 5.46755 171.438 5.14593V4.9702C171.438 4.64196 171.489 4.32365 171.593 4.01861C171.698 3.71357 171.853 3.43837 172.062 3.19301C172.271 2.94766 172.534 2.75203 172.851 2.60946C173.168 2.46357 173.539 2.39062 173.961 2.39062C174.508 2.39062 174.966 2.50668 175.331 2.74209C175.695 2.9775 175.968 3.28254 176.153 3.65721C176.339 4.03188 176.427 4.43638 176.427 4.86742V5.30508H171.913V4.57233H175.681L175.378 4.94368C175.378 4.60879 175.324 4.32034 175.216 4.07498C175.108 3.82962 174.953 3.64063 174.744 3.508C174.534 3.37538 174.274 3.30906 173.961 3.30906C173.648 3.30906 173.361 3.38201 173.138 3.53121C172.919 3.68041 172.753 3.88267 172.646 4.14461C172.538 4.40323 172.484 4.71158 172.484 5.06304C172.484 5.39792 172.538 5.69633 172.646 5.95827C172.753 6.2202 172.919 6.42911 173.144 6.58161C173.371 6.73411 173.661 6.81042 174.015 6.81042C174.369 6.81042 174.656 6.73411 174.885 6.58161C175.111 6.42911 175.249 6.25336 175.3 6.04779H176.329C176.258 6.38929 176.12 6.68442 175.908 6.93967C175.695 7.19498 175.432 7.38729 175.108 7.52323C174.788 7.65917 174.423 7.72879 174.011 7.72879L174.018 7.72548Z" fill="white"/>
<path d="M179.847 7.5565V0.779297H180.981V7.5565H179.847Z" fill="white"/>
<path d="M182.734 7.55683V2.5535H183.611V4.69873H183.507C183.507 4.2047 183.574 3.78693 183.709 3.44542C183.844 3.1039 184.05 2.84528 184.326 2.66955C184.603 2.49382 184.947 2.4043 185.355 2.4043H185.402C186.033 2.4043 186.502 2.59992 186.809 2.98785C187.116 3.3791 187.271 3.94608 187.271 4.69542V7.55352H186.165V4.54621C186.165 4.19807 186.064 3.91955 185.861 3.70735C185.659 3.49515 185.382 3.38573 185.031 3.38573C184.681 3.38573 184.384 3.49515 184.161 3.71398C183.942 3.93282 183.831 4.22459 183.831 4.59263V7.55352H182.724L182.734 7.55683Z" fill="white"/>
<path d="M189.828 7.55606L188.165 2.55273H189.319L190.924 7.55606H189.828ZM190.142 7.55606V6.67406H191.379V7.55606H190.142ZM190.614 7.55606L192.011 2.55273H193.086L191.643 7.55606H190.614Z" fill="white"/>
<path d="M196.297 7.72548C195.856 7.72548 195.471 7.65254 195.144 7.50336C194.817 7.35417 194.551 7.15854 194.341 6.91317C194.132 6.66779 193.977 6.39261 193.872 6.08758C193.767 5.78254 193.717 5.46755 193.717 5.14593V4.9702C193.717 4.64196 193.767 4.32365 193.872 4.01861C193.977 3.71357 194.132 3.43837 194.341 3.19301C194.551 2.94766 194.813 2.75203 195.131 2.60946C195.447 2.46357 195.819 2.39062 196.24 2.39062C196.787 2.39062 197.246 2.50668 197.61 2.74209C197.974 2.9775 198.247 3.28254 198.432 3.65721C198.618 4.03188 198.706 4.43638 198.706 4.86742V5.30508H194.192V4.57233H197.961L197.657 4.94368C197.657 4.60879 197.603 4.32034 197.495 4.07498C197.387 3.82962 197.232 3.64063 197.022 3.508C196.814 3.37538 196.554 3.30906 196.24 3.30906C195.926 3.30906 195.64 3.38201 195.417 3.53121C195.198 3.68041 195.032 3.88267 194.925 4.14461C194.817 4.40323 194.763 4.71158 194.763 5.06304C194.763 5.39792 194.817 5.69633 194.925 5.95827C195.032 6.2202 195.198 6.42911 195.424 6.58161C195.65 6.73411 195.94 6.81042 196.294 6.81042C196.648 6.81042 196.935 6.73411 197.164 6.58161C197.391 6.42911 197.529 6.25336 197.579 6.04779H198.608C198.537 6.38929 198.399 6.68442 198.186 6.93967C197.974 7.19498 197.711 7.38729 197.387 7.52323C197.067 7.65917 196.702 7.72879 196.291 7.72879L196.297 7.72548Z" fill="white"/>
<path d="M201.654 7.70542C200.966 7.70542 200.433 7.56286 200.052 7.27773C199.671 6.99255 199.472 6.6013 199.451 6.09734H200.47C200.484 6.28305 200.581 6.45211 200.764 6.60792C200.946 6.7638 201.246 6.84005 201.661 6.84005C202.012 6.84005 202.292 6.77042 202.491 6.63448C202.693 6.49855 202.794 6.32942 202.794 6.12387C202.794 5.93819 202.72 5.7923 202.571 5.68288C202.423 5.57347 202.174 5.50052 201.819 5.46405L201.32 5.41763C200.797 5.36127 200.382 5.20875 200.079 4.96338C199.772 4.71472 199.62 4.38315 199.62 3.96206C199.62 3.62718 199.704 3.34535 199.876 3.11657C200.049 2.88779 200.281 2.71206 200.581 2.58607C200.882 2.46338 201.226 2.40039 201.617 2.40039C202.221 2.40039 202.71 2.53302 203.081 2.79495C203.452 3.05689 203.644 3.44482 203.657 3.95212H202.646C202.632 3.7598 202.541 3.60065 202.372 3.46803C202.204 3.33872 201.951 3.2724 201.617 3.2724C201.303 3.2724 201.061 3.3354 200.895 3.45808C200.73 3.58076 200.646 3.73992 200.646 3.93222C200.646 4.10463 200.709 4.24058 200.834 4.34005C200.959 4.43952 201.165 4.50251 201.448 4.53567L201.947 4.58208C202.521 4.64508 202.976 4.80092 203.314 5.0496C203.651 5.29827 203.819 5.64973 203.819 6.09402C203.819 6.41567 203.729 6.69748 203.546 6.93948C203.364 7.18155 203.111 7.36723 202.787 7.49986C202.464 7.63248 202.086 7.6988 201.657 7.6988L201.654 7.70542Z" fill="white"/>
<path d="M204.326 3.36166V2.55264H207.878V3.36166H204.326ZM207.112 7.61234C206.69 7.61234 206.333 7.55596 206.046 7.44652C205.756 7.33377 205.536 7.14484 205.388 6.86959C205.239 6.5944 205.166 6.22969 205.166 5.7655V1.09375H206.214V5.85502C206.214 6.11364 206.286 6.3159 206.427 6.45515C206.569 6.5944 206.768 6.66402 207.028 6.66402H207.878V7.61234H207.112Z" fill="white"/>
<path d="M208.576 3.38884V2.5533H210.428V3.38884H208.576ZM209.682 1.85701C209.456 1.85701 209.288 1.79733 209.176 1.68129C209.065 1.56524 209.011 1.41272 209.011 1.22704C209.011 1.04136 209.065 0.898792 209.176 0.776111C209.288 0.656749 209.456 0.59375 209.682 0.59375C209.908 0.59375 210.087 0.65343 210.198 0.776111C210.309 0.895474 210.363 1.04799 210.363 1.22704C210.363 1.40609 210.309 1.56524 210.198 1.68129C210.087 1.79733 209.915 1.85701 209.682 1.85701ZM209.321 7.55662V2.5533H210.428V7.55662H209.321Z" fill="white"/>
<path d="M214.016 9.516C213.777 9.516 213.534 9.506 213.288 9.48944C213.042 9.46956 212.813 9.44638 212.6 9.4165V8.49806C212.826 8.52794 213.069 8.55444 213.322 8.57763C213.578 8.60088 213.814 8.61081 214.033 8.61081C214.475 8.61081 214.829 8.55444 215.096 8.445C215.363 8.33563 215.558 8.16319 215.683 7.93113C215.804 7.699 215.868 7.39725 215.868 7.02594V6.06107L216.162 5.39131C216.141 5.8754 216.041 6.27988 215.855 6.60813C215.669 6.93638 215.423 7.18506 215.119 7.35088C214.813 7.51663 214.465 7.60288 214.077 7.60288C213.723 7.60288 213.403 7.53656 213.113 7.40725C212.823 7.27794 212.573 7.09556 212.367 6.86013C212.158 6.62475 211.999 6.35288 211.884 6.04781C211.77 5.74277 211.716 5.41452 211.716 5.0697V4.89396C211.716 4.5425 211.773 4.21426 211.891 3.90921C212.009 3.60749 212.175 3.34224 212.388 3.11678C212.6 2.89131 212.859 2.71558 213.156 2.5929C213.453 2.47023 213.784 2.40723 214.144 2.40723C214.559 2.40723 214.928 2.49675 215.244 2.67248C215.561 2.84821 215.811 3.10683 215.996 3.44834C216.179 3.78985 216.276 4.20431 216.29 4.69171L216.044 4.71823V2.56306H216.921V6.97288C216.921 7.57963 216.823 8.07038 216.624 8.445C216.425 8.81969 216.114 9.09488 215.689 9.26731C215.264 9.43969 214.708 9.52594 214.023 9.52594L214.016 9.516ZM214.347 6.62806C214.624 6.62806 214.877 6.56838 215.106 6.44569C215.336 6.32631 215.518 6.1506 215.653 5.92513C215.788 5.69966 215.855 5.42778 215.855 5.1128V4.7315C215.855 4.42314 215.784 4.1612 215.643 3.94569C215.501 3.73017 215.315 3.57102 215.089 3.45829C214.863 3.34556 214.617 3.2925 214.354 3.2925C214.05 3.2925 213.784 3.36213 213.551 3.50139C213.318 3.64065 213.136 3.83627 213.008 4.08495C212.88 4.33693 212.816 4.62871 212.816 4.96359C212.816 5.29847 212.883 5.6002 213.014 5.84887C213.146 6.10086 213.328 6.28988 213.558 6.42581C213.787 6.55844 214.05 6.62475 214.347 6.62475V6.62806Z" fill="white"/>
<path d="M219.899 7.68567C219.528 7.68567 219.204 7.62267 218.927 7.49667C218.651 7.37067 218.435 7.18498 218.287 6.9396C218.135 6.69429 218.061 6.40248 218.061 6.06099C218.061 5.7029 218.149 5.40449 218.321 5.16908C218.492 4.93367 218.742 4.75794 219.062 4.63857C219.383 4.52252 219.767 4.46284 220.216 4.46284H221.491V5.17902H220.189C219.856 5.17902 219.599 5.2586 219.424 5.41444C219.248 5.57359 219.161 5.77916 219.161 6.03115C219.161 6.28317 219.248 6.48873 219.424 6.63792C219.599 6.79042 219.856 6.86667 220.189 6.86667C220.385 6.86667 220.571 6.83023 220.746 6.7606C220.921 6.69098 221.069 6.5716 221.184 6.40248C221.302 6.23672 221.366 6.0013 221.377 5.69627L221.66 6.05767C221.629 6.4091 221.542 6.70754 221.4 6.94298C221.259 7.18167 221.063 7.36404 220.813 7.49004C220.564 7.61604 220.26 7.67904 219.902 7.67904L219.899 7.68567ZM221.552 7.55635V6.06099H221.373V4.37C221.373 4.06165 221.292 3.82624 221.127 3.66377C220.962 3.5013 220.722 3.42173 220.398 3.42173C220.223 3.42173 220.027 3.42173 219.811 3.43168C219.599 3.43831 219.386 3.44494 219.184 3.45489C218.978 3.46484 218.799 3.47478 218.641 3.48804V2.54972C218.779 2.53645 218.931 2.5265 219.1 2.51656C219.265 2.50661 219.441 2.49998 219.619 2.49335C219.798 2.48672 219.97 2.4834 220.135 2.4834C220.651 2.4834 221.08 2.54972 221.421 2.67902C221.761 2.80834 222.014 3.0139 222.179 3.29574C222.344 3.57757 222.429 3.95224 222.429 4.42305V7.55304H221.552V7.55635Z" fill="white"/>
<path d="M226.18 7.72586C225.745 7.72586 225.367 7.65293 225.043 7.50705C224.719 7.36118 224.453 7.16224 224.241 6.91355C224.028 6.66155 223.872 6.38305 223.768 6.07801C223.664 5.77297 223.613 5.4613 223.613 5.14631V4.98053C223.613 4.65228 223.667 4.33398 223.775 4.02894C223.882 3.7239 224.041 3.44539 224.257 3.19671C224.47 2.94804 224.736 2.75241 225.057 2.60653C225.374 2.46064 225.748 2.3877 226.176 2.3877C226.605 2.3877 226.999 2.46727 227.344 2.62974C227.687 2.7922 227.961 3.01767 228.17 3.31276C228.379 3.60785 228.494 3.94936 228.521 4.3373H227.455C227.417 4.05878 227.289 3.82337 227.074 3.63106C226.858 3.43876 226.557 3.3426 226.18 3.3426C225.852 3.3426 225.583 3.41555 225.367 3.56475C225.154 3.71395 224.992 3.91621 224.884 4.17151C224.777 4.42682 224.722 4.72523 224.722 5.0568C224.722 5.38836 224.773 5.67019 224.878 5.92881C224.982 6.18743 225.141 6.39299 225.36 6.54218C225.576 6.69143 225.852 6.76436 226.187 6.76436C226.446 6.76436 226.666 6.71793 226.851 6.62843C227.037 6.53886 227.185 6.41955 227.3 6.26699C227.414 6.11448 227.479 5.94207 227.499 5.74313H228.575C228.554 6.14433 228.44 6.49249 228.224 6.78755C228.011 7.08268 227.728 7.31143 227.374 7.47393C227.02 7.63636 226.625 7.71924 226.183 7.71924L226.18 7.72586ZM226.126 9.88768C225.994 9.88768 225.866 9.87774 225.748 9.86118C225.63 9.8413 225.529 9.82136 225.444 9.79486V9.09855C225.532 9.1218 225.633 9.14499 225.751 9.16486C225.869 9.1848 225.987 9.19143 226.106 9.19143C226.294 9.19143 226.436 9.16155 226.531 9.10186C226.625 9.04218 226.672 8.96593 226.672 8.87311C226.672 8.78693 226.635 8.71724 226.564 8.66424C226.494 8.61118 226.372 8.58461 226.2 8.58461H225.796V7.45068H226.467V8.34261L226.031 7.98118H226.173C226.557 7.98118 226.861 8.05743 227.091 8.20999C227.317 8.36249 227.431 8.5813 227.431 8.87311C227.431 9.16486 227.317 9.39699 227.091 9.59261C226.864 9.78824 226.544 9.88436 226.126 9.88436V9.88768Z" fill="white"/>
<path d="M231.128 7.68604C230.758 7.68604 230.433 7.62304 230.157 7.49704C229.88 7.37104 229.664 7.18536 229.516 6.93998C229.364 6.69467 229.29 6.40286 229.29 6.06136C229.29 5.70327 229.378 5.40486 229.549 5.16946C229.722 4.93404 229.971 4.75831 230.292 4.63895C230.612 4.5229 230.997 4.46322 231.445 4.46322H232.721V5.1794H231.418C231.084 5.1794 230.828 5.25897 230.653 5.41481C230.478 5.57396 230.389 5.77954 230.389 6.03152C230.389 6.28354 230.478 6.48911 230.653 6.63829C230.828 6.79079 231.084 6.86704 231.418 6.86704C231.614 6.86704 231.799 6.83061 231.975 6.76098C232.15 6.69136 232.299 6.57198 232.413 6.40286C232.531 6.23709 232.596 6.00168 232.606 5.69664L232.889 6.05805C232.859 6.40948 232.771 6.70792 232.629 6.94336C232.488 7.18204 232.292 7.36442 232.043 7.49042C231.793 7.61642 231.489 7.67942 231.132 7.67942L231.128 7.68604ZM232.781 7.55673V6.06136H232.603V4.37038C232.603 4.06202 232.521 3.82662 232.356 3.66415C232.191 3.50168 231.951 3.4221 231.628 3.4221C231.452 3.4221 231.256 3.4221 231.041 3.43205C230.828 3.43869 230.616 3.44532 230.413 3.45526C230.208 3.46521 230.029 3.47516 229.87 3.48842V2.55009C230.008 2.53683 230.16 2.52688 230.329 2.51694C230.494 2.50699 230.669 2.50035 230.848 2.49372C231.027 2.48709 231.199 2.48377 231.364 2.48377C231.881 2.48377 232.309 2.55009 232.649 2.6794C232.99 2.80871 233.243 3.01428 233.408 3.29611C233.574 3.57794 233.658 3.95261 233.658 4.42343V7.55342H232.781V7.55673ZM232.255 1.6615C232.086 1.6615 231.941 1.63829 231.826 1.58855C231.708 1.53882 231.604 1.48245 231.506 1.42277C231.408 1.36309 231.311 1.30672 231.213 1.2603C231.115 1.21388 231 1.19067 230.869 1.19067C230.73 1.19067 230.602 1.22383 230.488 1.28683C230.369 1.35314 230.268 1.43603 230.181 1.54213L230.002 0.809373C230.103 0.693323 230.228 0.593856 230.376 0.510965C230.524 0.431389 230.7 0.391602 230.899 0.391602C231.061 0.391602 231.203 0.414811 231.324 0.46123C231.442 0.507649 231.55 0.5607 231.644 0.623697C231.739 0.686692 231.837 0.739742 231.938 0.78948C232.039 0.839217 232.15 0.862424 232.279 0.862424C232.424 0.862424 232.555 0.829267 232.67 0.766267C232.788 0.699955 232.893 0.617065 232.987 0.510965L233.156 1.24372C233.054 1.35645 232.929 1.45261 232.778 1.5355C232.626 1.61839 232.454 1.6615 232.258 1.6615H232.255Z" fill="white"/>
<path d="M237.591 7.72586C237.142 7.72586 236.751 7.65293 236.411 7.50705C236.07 7.36118 235.783 7.16886 235.551 6.9268C235.317 6.6848 235.142 6.41286 235.021 6.10454C234.902 5.7995 234.842 5.4812 234.842 5.15295V4.96727C234.842 4.63902 234.902 4.32072 235.027 4.01236C235.149 3.70401 235.331 3.4255 235.567 3.18013C235.803 2.93478 236.09 2.74247 236.431 2.5999C236.771 2.45732 237.159 2.3877 237.591 2.3877C238.023 2.3877 238.411 2.45732 238.748 2.5999C239.086 2.74247 239.372 2.93478 239.612 3.18013C239.851 3.4255 240.033 3.70069 240.154 4.01236C240.276 4.32072 240.34 4.63902 240.34 4.96727V5.15295C240.34 5.4812 240.279 5.7995 240.161 6.10454C240.043 6.40955 239.864 6.6848 239.632 6.9268C239.399 7.16886 239.112 7.36118 238.772 7.50705C238.431 7.65293 238.04 7.72586 237.591 7.72586ZM237.591 6.77761C237.939 6.77761 238.232 6.70136 238.478 6.54886C238.724 6.3963 238.91 6.19075 239.041 5.93213C239.17 5.6735 239.234 5.38173 239.234 5.06011C239.234 4.73849 239.166 4.43676 239.035 4.17815C238.903 3.91953 238.714 3.71395 238.468 3.56143C238.222 3.40891 237.928 3.33265 237.591 3.33265C237.254 3.33265 236.957 3.40891 236.714 3.56143C236.468 3.71395 236.279 3.91953 236.147 4.17815C236.016 4.43676 235.948 4.73186 235.948 5.06011C235.948 5.38836 236.012 5.6735 236.141 5.93213C236.269 6.19075 236.457 6.3963 236.704 6.54886C236.95 6.70136 237.247 6.77761 237.591 6.77761Z" fill="white"/>
<path d="M243.106 7.5565L245.524 0.779297H247.403L249.896 7.5565H248.726L246.543 1.522L247.006 1.73421H245.862L246.354 1.522L244.239 7.5565H243.106ZM244.674 5.64336L245.032 4.6785H247.923L248.291 5.64336H244.674Z" fill="white"/>
<path d="M250.925 9.41317V2.55309H251.802V4.7149L251.633 4.70495C251.664 4.17776 251.778 3.74673 251.974 3.40522C252.169 3.06371 252.426 2.81171 252.75 2.64262C253.074 2.47352 253.424 2.39062 253.809 2.39062C254.194 2.39062 254.504 2.45694 254.801 2.58957C255.098 2.72219 255.351 2.90787 255.566 3.14328C255.782 3.37869 255.944 3.65058 256.052 3.95893C256.163 4.26729 256.218 4.60217 256.218 4.96026V5.13599C256.218 5.48744 256.16 5.82232 256.049 6.13399C255.934 6.44567 255.772 6.72086 255.556 6.95629C255.344 7.19167 255.088 7.37736 254.791 7.51329C254.494 7.64923 254.163 7.71886 253.799 7.71886C253.434 7.71886 253.081 7.64261 252.76 7.48679C252.439 7.33092 252.173 7.08561 251.968 6.74411C251.758 6.40254 251.643 5.96158 251.616 5.41782L252.031 6.10416V9.40986H250.925V9.41317ZM253.559 6.78717C253.866 6.78717 254.139 6.71423 254.373 6.56836C254.605 6.42248 254.787 6.2202 254.916 5.95495C255.044 5.69301 255.108 5.39129 255.108 5.04978C255.108 4.70827 255.044 4.40986 254.916 4.14793C254.787 3.8893 254.608 3.68373 254.376 3.54116C254.146 3.39527 253.873 3.32232 253.559 3.32232C253.283 3.32232 253.023 3.38533 252.784 3.508C252.544 3.63068 252.352 3.80972 252.207 4.04182C252.062 4.27392 251.991 4.55243 251.991 4.88068V5.27856C251.991 5.59354 252.065 5.86543 252.214 6.09089C252.362 6.31636 252.554 6.48879 252.794 6.60479C253.033 6.72086 253.286 6.78054 253.559 6.78054V6.78717Z" fill="white"/>
<path d="M256.865 1.61484V0.779297H258.649V1.61484H256.865ZM257.536 7.5565V0.779297H258.649V7.5565H257.536Z" fill="white"/>
<path d="M259.776 3.38884V2.5533H261.628V3.38884H259.776ZM260.879 1.85701C260.653 1.85701 260.484 1.79733 260.373 1.68129C260.262 1.56524 260.208 1.41272 260.208 1.22704C260.208 1.04136 260.262 0.898792 260.373 0.776111C260.484 0.656749 260.653 0.59375 260.879 0.59375C261.105 0.59375 261.284 0.65343 261.395 0.776111C261.506 0.895474 261.561 1.04799 261.561 1.22704C261.561 1.40609 261.506 1.56524 261.395 1.68129C261.284 1.79733 261.112 1.85701 260.879 1.85701ZM260.521 7.55662V2.5533H261.628V7.55662H260.521Z" fill="white"/>
<path d="M265.48 7.72586C265.045 7.72586 264.667 7.65293 264.343 7.50705C264.019 7.36118 263.753 7.16224 263.541 6.91355C263.328 6.66155 263.172 6.38305 263.068 6.07801C262.964 5.77297 262.913 5.4613 262.913 5.14631V4.98053C262.913 4.65228 262.967 4.33398 263.075 4.02894C263.182 3.7239 263.341 3.44539 263.557 3.19671C263.769 2.94804 264.036 2.75241 264.357 2.60653C264.674 2.46064 265.048 2.3877 265.476 2.3877C265.905 2.3877 266.299 2.46727 266.644 2.62974C266.987 2.7922 267.261 3.01767 267.47 3.31276C267.679 3.60785 267.794 3.94936 267.821 4.3373H266.755C266.718 4.05878 266.589 3.82337 266.374 3.63106C266.158 3.43876 265.857 3.3426 265.48 3.3426C265.152 3.3426 264.883 3.41555 264.667 3.56475C264.454 3.71395 264.292 3.91621 264.184 4.17151C264.077 4.42682 264.022 4.72523 264.022 5.0568C264.022 5.38836 264.073 5.67019 264.178 5.92881C264.282 6.18743 264.441 6.39299 264.66 6.54218C264.876 6.69143 265.152 6.76436 265.487 6.76436C265.746 6.76436 265.966 6.71793 266.151 6.62843C266.337 6.53886 266.485 6.41955 266.6 6.26699C266.714 6.11448 266.779 5.94207 266.799 5.74313H267.875C267.854 6.14433 267.74 6.49249 267.524 6.78755C267.311 7.08268 267.028 7.31143 266.674 7.47393C266.32 7.63636 265.925 7.71924 265.483 7.71924L265.48 7.72586Z" fill="white"/>
<path d="M270.428 7.68567C270.057 7.68567 269.733 7.62267 269.457 7.49667C269.18 7.37067 268.964 7.18498 268.816 6.9396C268.664 6.69429 268.59 6.40248 268.59 6.06099C268.59 5.7029 268.678 5.40449 268.849 5.16908C269.022 4.93367 269.271 4.75794 269.592 4.63857C269.912 4.52252 270.297 4.46284 270.745 4.46284H272.021V5.17902H270.718C270.384 5.17902 270.128 5.2586 269.953 5.41444C269.778 5.57359 269.689 5.77916 269.689 6.03115C269.689 6.28317 269.778 6.48873 269.953 6.63792C270.128 6.79042 270.384 6.86667 270.718 6.86667C270.914 6.86667 271.099 6.83023 271.275 6.7606C271.45 6.69098 271.599 6.5716 271.713 6.40248C271.831 6.23672 271.896 6.0013 271.906 5.69627L272.189 6.05767C272.159 6.4091 272.071 6.70754 271.929 6.94298C271.788 7.18167 271.592 7.36404 271.343 7.49004C271.093 7.61604 270.789 7.67904 270.432 7.67904L270.428 7.68567ZM272.081 7.55635V6.06099H271.903V4.37C271.903 4.06165 271.821 3.82624 271.656 3.66377C271.491 3.5013 271.251 3.42173 270.928 3.42173C270.752 3.42173 270.556 3.42173 270.341 3.43168C270.128 3.43831 269.916 3.44494 269.713 3.45489C269.508 3.46484 269.329 3.47478 269.17 3.48804V2.54972C269.308 2.53645 269.46 2.5265 269.629 2.51656C269.794 2.50661 269.969 2.49998 270.148 2.49335C270.327 2.48672 270.499 2.4834 270.664 2.4834C271.181 2.4834 271.609 2.54972 271.949 2.67902C272.29 2.80834 272.543 3.0139 272.708 3.29574C272.874 3.57757 272.958 3.95224 272.958 4.42305V7.55304H272.081V7.55635Z" fill="white"/>
<path d="M276.614 7.72556C276.25 7.72556 275.916 7.65925 275.619 7.52993C275.319 7.40062 275.059 7.21831 274.837 6.98287C274.614 6.7475 274.442 6.47556 274.321 6.16723C274.202 5.85888 274.142 5.52068 274.142 5.15596V4.98023C274.142 4.62214 274.199 4.28394 274.317 3.97227C274.436 3.6606 274.601 3.3854 274.813 3.14999C275.026 2.91458 275.286 2.73222 275.582 2.59628C275.879 2.46033 276.213 2.39733 276.577 2.39733C276.969 2.39733 277.319 2.48023 277.63 2.6427C277.94 2.80848 278.193 3.05715 278.386 3.39535C278.577 3.73354 278.682 4.16127 278.702 4.68182L278.324 4.17121V0.779297H279.431V7.5565H278.554V5.38473H278.8C278.78 5.92187 278.669 6.36618 278.466 6.711C278.264 7.05581 277.997 7.31443 277.677 7.47693C277.357 7.63937 277.002 7.72225 276.618 7.72225L276.614 7.72556ZM276.824 6.78725C277.107 6.78725 277.363 6.72425 277.592 6.60156C277.822 6.47887 278.007 6.29656 278.149 6.05782C278.291 5.81908 278.362 5.54057 278.362 5.21895V4.82108C278.362 4.50609 278.291 4.23752 278.146 4.01206C278.001 3.78991 277.812 3.6175 277.579 3.50145C277.346 3.3854 277.09 3.32572 276.814 3.32572C276.503 3.32572 276.233 3.39867 275.997 3.54455C275.761 3.69044 275.576 3.8927 275.444 4.15132C275.312 4.40993 275.245 4.71498 275.245 5.0598C275.245 5.40463 275.312 5.71962 275.447 5.97824C275.582 6.23686 275.771 6.43912 276.011 6.57837C276.25 6.71762 276.52 6.78725 276.824 6.78725Z" fill="white"/>
<path d="M282.47 7.68567C282.099 7.68567 281.776 7.62267 281.499 7.49667C281.222 7.37067 281.006 7.18498 280.858 6.9396C280.706 6.69429 280.632 6.40248 280.632 6.06099C280.632 5.7029 280.719 5.40449 280.892 5.16908C281.064 4.93367 281.313 4.75794 281.634 4.63857C281.954 4.52252 282.339 4.46284 282.787 4.46284H284.062V5.17902H282.76C282.426 5.17902 282.17 5.2586 281.994 5.41444C281.819 5.57359 281.731 5.77916 281.731 6.03115C281.731 6.28317 281.819 6.48873 281.994 6.63792C282.17 6.79042 282.426 6.86667 282.76 6.86667C282.956 6.86667 283.141 6.83023 283.317 6.7606C283.492 6.69098 283.641 6.5716 283.756 6.40248C283.873 6.23672 283.937 6.0013 283.947 5.69627L284.231 6.05767C284.201 6.4091 284.113 6.70754 283.971 6.94298C283.829 7.18167 283.634 7.36404 283.384 7.49004C283.135 7.61604 282.831 7.67904 282.474 7.67904L282.47 7.68567ZM284.123 7.55635V6.06099H283.944V4.37C283.944 4.06165 283.863 3.82624 283.698 3.66377C283.532 3.5013 283.293 3.42173 282.969 3.42173C282.794 3.42173 282.598 3.42173 282.382 3.43168C282.17 3.43831 281.957 3.44494 281.755 3.45489C281.549 3.46484 281.371 3.47478 281.212 3.48804V2.54972C281.351 2.53645 281.502 2.5265 281.671 2.51656C281.836 2.50661 282.011 2.49998 282.19 2.49335C282.369 2.48672 282.541 2.4834 282.706 2.4834C283.222 2.4834 283.651 2.54972 283.991 2.67902C284.332 2.80834 284.585 3.0139 284.751 3.29574C284.916 3.57757 285 3.95224 285 4.42305V7.55304H284.123V7.55635Z" fill="white"/>
<path d="M108.624 17.8378C108.182 17.8378 107.797 17.7649 107.471 17.6157C107.143 17.4664 106.877 17.2709 106.667 17.0255C106.458 16.7801 106.303 16.5049 106.199 16.1999C106.094 15.8949 106.044 15.5799 106.044 15.2582V15.0825C106.044 14.7542 106.094 14.4359 106.199 14.1309C106.303 13.8259 106.458 13.5507 106.667 13.3053C106.877 13.06 107.14 12.8644 107.457 12.7217C107.774 12.5759 108.145 12.5029 108.567 12.5029C109.113 12.5029 109.572 12.619 109.936 12.8544C110.301 13.0898 110.574 13.3949 110.759 13.7695C110.944 14.1442 111.032 14.5487 111.032 14.9797V15.4174H106.519V14.6846H110.287L109.983 15.056C109.983 14.7211 109.929 14.4326 109.821 14.1873C109.714 13.9419 109.558 13.7529 109.349 13.6203C109.14 13.4877 108.88 13.4214 108.567 13.4214C108.253 13.4214 107.966 13.4943 107.744 13.6435C107.524 13.7927 107.359 13.995 107.251 14.2569C107.143 14.5156 107.089 14.8239 107.089 15.1754C107.089 15.5102 107.143 15.8086 107.251 16.0706C107.359 16.3325 107.524 16.5414 107.751 16.6939C107.976 16.8464 108.266 16.9227 108.621 16.9227C108.975 16.9227 109.261 16.8464 109.491 16.6939C109.717 16.5414 109.855 16.3657 109.906 16.1601H110.934C110.864 16.5016 110.726 16.7967 110.513 17.052C110.301 17.3073 110.037 17.4996 109.714 17.6356C109.393 17.7715 109.029 17.8411 108.617 17.8411L108.624 17.8378Z" fill="white"/>
<path d="M112.223 17.6688V12.6655H113.1V14.8206H112.996C112.996 14.3266 113.059 13.9088 113.188 13.5673C113.316 13.2258 113.512 12.9672 113.774 12.7881C114.034 12.6091 114.362 12.5195 114.753 12.5195H114.8C115.198 12.5195 115.526 12.6091 115.788 12.7881C116.048 12.9672 116.244 13.2291 116.376 13.5673C116.504 13.9088 116.568 14.3266 116.568 14.8206H116.264C116.264 14.3266 116.331 13.9088 116.463 13.5673C116.594 13.2258 116.794 12.9672 117.057 12.7881C117.32 12.6091 117.647 12.5195 118.038 12.5195H118.086C118.484 12.5195 118.814 12.6091 119.077 12.7881C119.34 12.9672 119.539 13.2291 119.671 13.5673C119.803 13.9088 119.87 14.3266 119.87 14.8206V17.6721H118.764V14.6648C118.764 14.3 118.669 14.0149 118.484 13.8093C118.298 13.6038 118.042 13.5043 117.714 13.5043C117.388 13.5043 117.104 13.6104 116.901 13.8259C116.699 14.0381 116.598 14.3365 116.598 14.7112V17.6721H115.485V14.6648C115.485 14.3 115.394 14.0149 115.212 13.8093C115.029 13.6038 114.773 13.5043 114.446 13.5043C114.119 13.5043 113.832 13.6104 113.629 13.8259C113.424 14.0381 113.323 14.3365 113.323 14.7112V17.6721H112.216L112.223 17.6688Z" fill="white"/>
<path d="M126.673 17.8382C126.042 17.8382 125.506 17.7321 125.064 17.5165C124.622 17.301 124.262 17.0225 123.988 16.671C123.715 16.3196 123.513 15.9449 123.384 15.5371C123.256 15.1293 123.192 14.7414 123.192 14.3634V14.1578C123.192 13.7434 123.26 13.3322 123.391 12.9244C123.523 12.5165 123.726 12.1452 124.002 11.8104C124.279 11.4754 124.632 11.2069 125.068 11.0013C125.506 10.7957 126.022 10.6963 126.623 10.6963C127.223 10.6963 127.783 10.8057 128.239 11.0212C128.691 11.2367 129.051 11.5384 129.321 11.9264C129.591 12.3143 129.746 12.7685 129.797 13.2957H128.653C128.603 12.9476 128.485 12.6591 128.299 12.427C128.114 12.1949 127.877 12.0192 127.591 11.9032C127.304 11.7871 126.981 11.7274 126.623 11.7274C126.265 11.7274 125.921 11.7937 125.634 11.923C125.347 12.0524 125.112 12.2314 124.922 12.4602C124.734 12.689 124.592 12.9575 124.494 13.2626C124.397 13.5676 124.349 13.9058 124.349 14.2705C124.349 14.6352 124.397 14.9436 124.494 15.2487C124.592 15.5537 124.737 15.8256 124.933 16.061C125.129 16.2964 125.371 16.4787 125.665 16.608C125.958 16.7374 126.296 16.8037 126.68 16.8037C127.233 16.8037 127.699 16.6677 128.077 16.3992C128.454 16.1306 128.684 15.746 128.765 15.242H129.918C129.854 15.7195 129.692 16.1539 129.426 16.545C129.162 16.9396 128.799 17.2513 128.34 17.4834C127.881 17.7155 127.324 17.8315 126.677 17.8315L126.673 17.8382Z" fill="white"/>
<path d="M133.426 17.8382C132.978 17.8382 132.586 17.7653 132.246 17.6194C131.905 17.4735 131.618 17.2812 131.386 17.0391C131.153 16.7971 130.978 16.5252 130.856 16.2168C130.738 15.9118 130.678 15.5935 130.678 15.2653V15.0796C130.678 14.7513 130.738 14.433 130.863 14.1247C130.985 13.8163 131.166 13.5378 131.403 13.2924C131.639 13.0471 131.926 12.8548 132.266 12.7122C132.607 12.5696 132.995 12.5 133.426 12.5C133.858 12.5 134.246 12.5696 134.583 12.7122C134.921 12.8548 135.208 13.0471 135.447 13.2924C135.686 13.5378 135.869 13.813 135.99 14.1247C136.111 14.433 136.176 14.7513 136.176 15.0796V15.2653C136.176 15.5935 136.115 15.9118 135.997 16.2168C135.879 16.5219 135.7 16.7971 135.467 17.0391C135.235 17.2812 134.948 17.4735 134.607 17.6194C134.266 17.7653 133.875 17.8382 133.426 17.8382ZM133.426 16.8899C133.774 16.8899 134.068 16.8137 134.314 16.6611C134.56 16.5086 134.745 16.3031 134.877 16.0444C135.005 15.7858 135.07 15.494 135.07 15.1724C135.07 14.8508 135.002 14.5491 134.87 14.2904C134.739 14.0318 134.55 13.8263 134.303 13.6738C134.057 13.5213 133.764 13.4449 133.426 13.4449C133.089 13.4449 132.793 13.5213 132.55 13.6738C132.303 13.8263 132.115 14.0318 131.983 14.2904C131.851 14.5491 131.784 14.8442 131.784 15.1724C131.784 15.5007 131.848 15.7858 131.976 16.0444C132.105 16.3031 132.293 16.5086 132.54 16.6611C132.786 16.8137 133.083 16.8899 133.426 16.8899Z" fill="white"/>
<path d="M137.441 17.6688V12.6655H138.318V14.8206H138.213C138.213 14.3266 138.277 13.9088 138.405 13.5673C138.533 13.2258 138.729 12.9672 138.992 12.7881C139.252 12.6091 139.579 12.5195 139.97 12.5195H140.018C140.416 12.5195 140.743 12.6091 141.006 12.7881C141.266 12.9672 141.461 13.2291 141.593 13.5673C141.721 13.9088 141.785 14.3266 141.785 14.8206H141.481C141.481 14.3266 141.549 13.9088 141.681 13.5673C141.812 13.2258 142.011 12.9672 142.274 12.7881C142.537 12.6091 142.864 12.5195 143.256 12.5195H143.303C143.701 12.5195 144.031 12.6091 144.294 12.7881C144.558 12.9672 144.757 13.2291 144.888 13.5673C145.02 13.9088 145.087 14.3266 145.087 14.8206V17.6721H143.981V14.6648C143.981 14.3 143.886 14.0149 143.701 13.8093C143.515 13.6038 143.259 13.5043 142.932 13.5043C142.604 13.5043 142.321 13.6104 142.119 13.8259C141.916 14.0381 141.815 14.3365 141.815 14.7112V17.6721H140.702V14.6648C140.702 14.3 140.611 14.0149 140.429 13.8093C140.247 13.6038 139.991 13.5043 139.663 13.5043C139.336 13.5043 139.049 13.6104 138.847 13.8259C138.641 14.0381 138.54 14.3365 138.54 14.7112V17.6721H137.434L137.441 17.6688Z" fill="white"/>
<path d="M148.376 17.818C147.779 17.818 147.317 17.629 146.996 17.2477C146.676 16.8664 146.514 16.306 146.514 15.5634V12.6655H147.621V15.7092C147.621 16.0574 147.718 16.3292 147.914 16.5315C148.109 16.7337 148.372 16.8332 148.706 16.8332C149.041 16.8332 149.324 16.7271 149.543 16.5116C149.762 16.2961 149.87 16.0043 149.87 15.633V12.6621H150.977V17.6655H150.099V15.5302H150.214C150.214 16.0309 150.147 16.4519 150.012 16.7868C149.877 17.125 149.678 17.3803 149.418 17.5527C149.159 17.7251 148.828 17.8114 148.43 17.8114H148.382L148.376 17.818Z" fill="white"/>
<path d="M152.619 17.6692V12.6659H153.496V14.811H153.392C153.392 14.317 153.459 13.8992 153.594 13.5577C153.729 13.2162 153.935 12.9576 154.211 12.7819C154.488 12.6062 154.832 12.5166 155.24 12.5166H155.288C155.918 12.5166 156.387 12.7122 156.694 13.1002C157.001 13.4914 157.156 14.0584 157.156 14.8077V17.6659H156.05V14.6585C156.05 14.3104 155.949 14.0319 155.746 13.8197C155.544 13.6075 155.267 13.498 154.916 13.498C154.566 13.498 154.269 13.6075 154.046 13.8263C153.827 14.0451 153.716 14.3369 153.716 14.705V17.6659H152.609L152.619 17.6692Z" fill="white"/>
<path d="M158.198 13.5011V12.6656H160.05V13.5011H158.198ZM159.305 11.9693C159.079 11.9693 158.91 11.9096 158.799 11.7936C158.688 11.6776 158.634 11.525 158.634 11.3393C158.634 11.1537 158.688 11.0111 158.799 10.8884C158.91 10.7691 159.079 10.7061 159.305 10.7061C159.531 10.7061 159.709 10.7657 159.821 10.8884C159.932 11.0077 159.986 11.1603 159.986 11.3393C159.986 11.5184 159.932 11.6776 159.821 11.7936C159.709 11.9096 159.538 11.9693 159.305 11.9693ZM158.944 17.6689V12.6656H160.05V17.6689H158.944Z" fill="white"/>
<path d="M163.903 17.8382C163.468 17.8382 163.089 17.7653 162.766 17.6194C162.442 17.4735 162.175 17.2746 161.963 17.0259C161.75 16.7739 161.595 16.4954 161.491 16.1903C161.386 15.8852 161.336 15.5736 161.336 15.2586V15.0928C161.336 14.7646 161.389 14.4463 161.498 14.1412C161.605 13.8362 161.764 13.5577 161.979 13.309C162.192 13.0604 162.459 12.8647 162.779 12.7188C163.096 12.5729 163.471 12.5 163.899 12.5C164.328 12.5 164.722 12.5796 165.066 12.7421C165.41 12.9045 165.683 13.13 165.893 13.4251C166.102 13.7202 166.216 14.0617 166.243 14.4496H165.178C165.14 14.1711 165.012 13.9357 164.796 13.7434C164.581 13.5511 164.28 13.4549 163.903 13.4549C163.575 13.4549 163.305 13.5279 163.089 13.6771C162.877 13.8263 162.715 14.0285 162.607 14.2838C162.499 14.5391 162.445 14.8376 162.445 15.1691C162.445 15.5007 162.496 15.7825 162.6 16.0411C162.705 16.2998 162.863 16.5053 163.083 16.6545C163.299 16.8037 163.575 16.8767 163.909 16.8767C164.169 16.8767 164.388 16.8303 164.574 16.7407C164.759 16.6512 164.908 16.5318 165.023 16.3793C165.137 16.2268 165.201 16.0544 165.221 15.8554H166.298C166.277 16.2566 166.163 16.6048 165.946 16.8999C165.734 17.1949 165.451 17.4237 165.096 17.5862C164.743 17.7487 164.348 17.8316 163.906 17.8316L163.903 17.8382Z" fill="white"/>
<path d="M168.854 17.798C168.483 17.798 168.159 17.735 167.882 17.609C167.606 17.483 167.39 17.2973 167.242 17.052C167.09 16.8066 167.016 16.5148 167.016 16.1733C167.016 15.8152 167.103 15.5168 167.276 15.2814C167.447 15.046 167.697 14.8703 168.017 14.7509C168.338 14.6348 168.723 14.5752 169.171 14.5752H170.446V15.2913H169.144C168.81 15.2913 168.554 15.371 168.378 15.5268C168.203 15.6859 168.116 15.8915 168.116 16.1435C168.116 16.3955 168.203 16.601 168.378 16.7503C168.554 16.9028 168.81 16.979 169.144 16.979C169.34 16.979 169.525 16.9426 169.701 16.8729C169.876 16.8033 170.024 16.684 170.139 16.5148C170.257 16.3491 170.321 16.1136 170.331 15.8086L170.615 16.17C170.584 16.5215 170.497 16.8199 170.355 17.0553C170.213 17.294 170.017 17.4764 169.768 17.6024C169.519 17.7283 169.215 17.7913 168.857 17.7913L168.854 17.798ZM170.507 17.6687V16.1733H170.328V14.4823C170.328 14.174 170.247 13.9386 170.082 13.7761C169.916 13.6136 169.677 13.5341 169.353 13.5341C169.178 13.5341 168.982 13.5341 168.766 13.544C168.554 13.5506 168.341 13.5573 168.139 13.5672C167.933 13.5771 167.754 13.5871 167.596 13.6004V12.662C167.734 12.6488 167.886 12.6388 168.054 12.6289C168.22 12.619 168.395 12.6123 168.574 12.6057C168.753 12.5991 168.925 12.5957 169.09 12.5957C169.606 12.5957 170.034 12.662 170.375 12.7913C170.716 12.9206 170.969 13.1263 171.134 13.4081C171.299 13.6899 171.384 14.0646 171.384 14.5354V17.6654H170.507V17.6687Z" fill="white"/>
<path d="M175.135 17.8382C174.699 17.8382 174.322 17.7653 173.998 17.6194C173.674 17.4735 173.407 17.2746 173.195 17.0259C172.982 16.7739 172.827 16.4954 172.723 16.1903C172.618 15.8852 172.568 15.5736 172.568 15.2586V15.0928C172.568 14.7646 172.622 14.4463 172.73 14.1412C172.837 13.8362 172.996 13.5577 173.212 13.309C173.424 13.0604 173.691 12.8647 174.011 12.7188C174.329 12.5729 174.703 12.5 175.131 12.5C175.56 12.5 175.954 12.5796 176.299 12.7421C176.642 12.9045 176.916 13.13 177.125 13.4251C177.334 13.7202 177.449 14.0617 177.476 14.4496H176.41C176.372 14.1711 176.244 13.9357 176.029 13.7434C175.812 13.5511 175.512 13.4549 175.135 13.4549C174.807 13.4549 174.537 13.5279 174.322 13.6771C174.109 13.8263 173.947 14.0285 173.839 14.2838C173.731 14.5391 173.677 14.8376 173.677 15.1691C173.677 15.5007 173.728 15.7825 173.832 16.0411C173.937 16.2998 174.096 16.5053 174.315 16.6545C174.531 16.8037 174.807 16.8767 175.141 16.8767C175.401 16.8767 175.621 16.8303 175.806 16.7407C175.991 16.6512 176.14 16.5318 176.254 16.3793C176.369 16.2268 176.433 16.0544 176.454 15.8554H177.529C177.509 16.2566 177.395 16.6048 177.179 16.8999C176.966 17.1949 176.683 17.4237 176.329 17.5862C175.974 17.7487 175.58 17.8316 175.138 17.8316L175.135 17.8382ZM175.077 20C174.946 20 174.817 19.9901 174.699 19.9735C174.581 19.9536 174.481 19.9337 174.396 19.9072V19.2109C174.484 19.2341 174.585 19.2573 174.703 19.2772C174.821 19.2971 174.939 19.3037 175.057 19.3037C175.246 19.3037 175.387 19.2739 175.482 19.2142C175.577 19.1545 175.624 19.0782 175.624 18.9854C175.624 18.8992 175.587 18.8296 175.516 18.7765C175.445 18.7235 175.324 18.6969 175.152 18.6969H174.747V17.563H175.418V18.4549L174.983 18.0935H175.124C175.509 18.0935 175.812 18.1697 176.042 18.3222C176.268 18.4748 176.382 18.6936 176.382 18.9854C176.382 19.2772 176.268 19.5093 176.042 19.7049C175.816 19.9005 175.496 19.9967 175.077 19.9967V20Z" fill="white"/>
<path d="M180.083 17.7983C179.712 17.7983 179.388 17.7353 179.112 17.6093C178.835 17.4833 178.619 17.2977 178.471 17.0523C178.319 16.8069 178.245 16.5152 178.245 16.1737C178.245 15.8155 178.332 15.5172 178.504 15.2817C178.676 15.0463 178.926 14.8706 179.247 14.7512C179.567 14.6352 179.951 14.5755 180.4 14.5755H181.675V15.2917H180.373C180.039 15.2917 179.783 15.3713 179.607 15.5271C179.432 15.6862 179.344 15.8918 179.344 16.1438C179.344 16.3958 179.432 16.6013 179.607 16.7506C179.783 16.9031 180.039 16.9793 180.373 16.9793C180.569 16.9793 180.754 16.9429 180.93 16.8732C181.105 16.8036 181.254 16.6843 181.368 16.5152C181.486 16.3494 181.551 16.114 181.561 15.8089L181.844 16.1703C181.814 16.5218 181.726 16.8202 181.584 17.0556C181.442 17.2943 181.247 17.4767 180.997 17.6027C180.747 17.7287 180.444 17.7917 180.086 17.7917L180.083 17.7983ZM181.736 17.669V16.1737H181.557V14.4827C181.557 14.1743 181.476 13.9389 181.31 13.7764C181.145 13.614 180.906 13.5344 180.582 13.5344C180.407 13.5344 180.211 13.5344 179.996 13.5443C179.783 13.551 179.571 13.5576 179.368 13.5675C179.162 13.5775 178.984 13.5875 178.825 13.6007V12.6623C178.963 12.6491 179.115 12.6392 179.284 12.6292C179.449 12.6193 179.624 12.6127 179.803 12.606C179.982 12.5994 180.154 12.596 180.319 12.596C180.835 12.596 181.264 12.6623 181.604 12.7917C181.945 12.921 182.198 13.1266 182.363 13.4084C182.529 13.6902 182.613 14.0649 182.613 14.5357V17.6657H181.736V17.669ZM181.206 11.7738C181.037 11.7738 180.892 11.7506 180.778 11.7008C180.66 11.6511 180.556 11.5947 180.457 11.535C180.359 11.4753 180.262 11.419 180.164 11.3726C180.066 11.3262 179.951 11.303 179.82 11.303C179.682 11.303 179.554 11.3361 179.439 11.3991C179.321 11.4654 179.219 11.5483 179.132 11.6544L178.953 10.9217C179.054 10.8056 179.179 10.7062 179.327 10.6232C179.476 10.5437 179.651 10.5039 179.85 10.5039C180.012 10.5039 180.154 10.5271 180.276 10.5735C180.393 10.6199 180.501 10.673 180.596 10.736C180.69 10.799 180.788 10.852 180.889 10.9018C180.991 10.9515 181.102 10.9747 181.23 10.9747C181.375 10.9747 181.506 10.9415 181.621 10.8785C181.739 10.8122 181.844 10.7293 181.938 10.6232L182.107 11.356C182.006 11.4687 181.881 11.5649 181.729 11.6478C181.577 11.7307 181.406 11.7738 181.21 11.7738H181.206Z" fill="white"/>
<path d="M186.542 17.8382C186.094 17.8382 185.702 17.7653 185.362 17.6194C185.021 17.4735 184.734 17.2812 184.502 17.0391C184.269 16.7971 184.094 16.5252 183.972 16.2168C183.854 15.9118 183.794 15.5935 183.794 15.2653V15.0796C183.794 14.7513 183.854 14.433 183.979 14.1247C184.101 13.8163 184.282 13.5378 184.519 13.2924C184.755 13.0471 185.041 12.8548 185.382 12.7122C185.723 12.5696 186.111 12.5 186.542 12.5C186.974 12.5 187.362 12.5696 187.699 12.7122C188.037 12.8548 188.324 13.0471 188.563 13.2924C188.802 13.5378 188.985 13.813 189.106 14.1247C189.227 14.433 189.292 14.7513 189.292 15.0796V15.2653C189.292 15.5935 189.231 15.9118 189.113 16.2168C188.995 16.5219 188.816 16.7971 188.583 17.0391C188.351 17.2812 188.064 17.4735 187.723 17.6194C187.382 17.7653 186.991 17.8382 186.542 17.8382ZM186.542 16.8899C186.89 16.8899 187.184 16.8137 187.43 16.6611C187.676 16.5086 187.861 16.3031 187.993 16.0444C188.121 15.7858 188.185 15.494 188.185 15.1724C188.185 14.8508 188.117 14.5491 187.986 14.2904C187.855 14.0318 187.666 13.8263 187.419 13.6738C187.173 13.5213 186.88 13.4449 186.542 13.4449C186.205 13.4449 185.908 13.5213 185.666 13.6738C185.419 13.8263 185.231 14.0318 185.099 14.2904C184.967 14.5491 184.9 14.8442 184.9 15.1724C184.9 15.5007 184.964 15.7858 185.092 16.0444C185.221 16.3031 185.409 16.5086 185.656 16.6611C185.902 16.8137 186.199 16.8899 186.542 16.8899Z" fill="white"/>
<path d="M194.871 17.8378C194.429 17.8378 194.044 17.7649 193.717 17.6157C193.39 17.4664 193.124 17.2709 192.914 17.0255C192.705 16.7801 192.55 16.5049 192.446 16.1999C192.341 15.8949 192.291 15.5799 192.291 15.2582V15.0825C192.291 14.7542 192.341 14.4359 192.446 14.1309C192.55 13.8259 192.705 13.5507 192.914 13.3053C193.124 13.06 193.387 12.8644 193.704 12.7217C194.021 12.5759 194.392 12.5029 194.813 12.5029C195.36 12.5029 195.819 12.619 196.183 12.8544C196.547 13.0898 196.821 13.3949 197.006 13.7695C197.191 14.1442 197.279 14.5487 197.279 14.9797V15.4174H192.766V14.6846H196.534L196.23 15.056C196.23 14.7211 196.176 14.4326 196.068 14.1873C195.96 13.9419 195.805 13.7529 195.596 13.6203C195.387 13.4877 195.127 13.4214 194.813 13.4214C194.5 13.4214 194.213 13.4943 193.991 13.6435C193.771 13.7927 193.606 13.995 193.498 14.2569C193.39 14.5156 193.336 14.8239 193.336 15.1754C193.336 15.5102 193.39 15.8086 193.498 16.0706C193.606 16.3325 193.771 16.5414 193.997 16.6939C194.223 16.8464 194.513 16.9227 194.867 16.9227C195.222 16.9227 195.508 16.8464 195.737 16.6939C195.964 16.5414 196.102 16.3657 196.152 16.1601H197.181C197.111 16.5016 196.972 16.7967 196.76 17.052C196.547 17.3073 196.284 17.4996 195.96 17.6356C195.64 17.7715 195.276 17.8411 194.864 17.8411L194.871 17.8378Z" fill="white"/>
<path d="M200.679 17.6688V10.8916H202.211L204.099 15.1721H204.261L206.13 10.8916H207.678V17.6688H206.555V11.8863L206.67 11.9062L204.761 16.2795H203.513L201.587 11.9062L201.718 11.8863V17.6688H200.679Z" fill="white"/>
<path d="M211.635 17.8377C211.193 17.8377 210.809 17.7648 210.481 17.6156C210.154 17.4664 209.888 17.2708 209.679 17.0254C209.469 16.7801 209.314 16.5049 209.21 16.1998C209.105 15.8948 209.054 15.5798 209.054 15.2582V15.0824C209.054 14.7542 209.105 14.4359 209.21 14.1309C209.314 13.8258 209.469 13.5506 209.679 13.3052C209.888 13.0599 210.151 12.8643 210.468 12.7217C210.785 12.5758 211.156 12.5029 211.578 12.5029C212.124 12.5029 212.583 12.6189 212.948 12.8543C213.311 13.0897 213.585 13.3948 213.77 13.7694C213.956 14.1441 214.044 14.5486 214.044 14.9797V15.4173H209.53V14.6846H213.298L212.994 15.0559C212.994 14.7211 212.941 14.4326 212.833 14.1872C212.724 13.9419 212.569 13.7529 212.36 13.6202C212.151 13.4876 211.891 13.4213 211.578 13.4213C211.264 13.4213 210.978 13.4942 210.754 13.6434C210.536 13.7927 210.37 13.9949 210.263 14.2569C210.154 14.5155 210.1 14.8238 210.1 15.1753C210.1 15.5102 210.154 15.8086 210.263 16.0705C210.37 16.3324 210.536 16.5413 210.761 16.6939C210.988 16.8464 211.278 16.9226 211.632 16.9226C211.986 16.9226 212.273 16.8464 212.502 16.6939C212.728 16.5413 212.866 16.3656 212.917 16.1601H213.946C213.875 16.5016 213.736 16.7966 213.524 17.0519C213.311 17.3072 213.048 17.4996 212.724 17.6355C212.404 17.7714 212.04 17.8411 211.628 17.8411L211.635 17.8377ZM211.021 11.9889L211.861 10.1123H213.014L211.956 11.9889H211.021Z" fill="white"/>
<path d="M217.349 17.8384C216.985 17.8384 216.651 17.7721 216.354 17.6428C216.054 17.5135 215.794 17.3311 215.571 17.0958C215.349 16.8603 215.177 16.5884 215.056 16.2801C214.938 15.9718 214.877 15.6336 214.877 15.2688V15.0931C214.877 14.735 214.934 14.3968 215.052 14.0851C215.17 13.7734 215.336 13.4983 215.548 13.2629C215.761 13.0274 216.02 12.8451 216.317 12.7091C216.614 12.5732 216.948 12.5102 217.312 12.5102C217.703 12.5102 218.054 12.5931 218.364 12.7556C218.675 12.9213 218.928 13.17 219.12 13.5082C219.313 13.8464 219.417 14.2741 219.437 14.7947L219.059 14.2841V10.8955H220.166V17.6727H219.289V15.5009H219.535C219.514 16.0381 219.403 16.4824 219.201 16.8272C218.999 17.172 218.732 17.4306 218.412 17.5931C218.091 17.7556 217.737 17.8384 217.353 17.8384H217.349ZM217.558 16.9001C217.842 16.9001 218.098 16.8371 218.328 16.7144C218.557 16.5918 218.742 16.4094 218.884 16.1707C219.026 15.9319 219.096 15.6534 219.096 15.3318V14.9339C219.096 14.6189 219.026 14.3504 218.881 14.1249C218.736 13.9028 218.546 13.7304 218.314 13.6143C218.081 13.4983 217.825 13.4386 217.548 13.4386C217.238 13.4386 216.968 13.5115 216.732 13.6574C216.496 13.8033 216.31 14.0056 216.179 14.2642C216.047 14.5228 215.979 14.8278 215.979 15.1727C215.979 15.5175 216.047 15.8325 216.182 16.0911C216.317 16.3497 216.506 16.552 216.746 16.6913C216.985 16.8305 217.254 16.9001 217.558 16.9001Z" fill="white"/>
<path d="M221.289 13.5011V12.6656H223.141V13.5011H221.289ZM222.395 11.9693C222.169 11.9693 222.001 11.9096 221.889 11.7936C221.778 11.6776 221.724 11.525 221.724 11.3393C221.724 11.1537 221.778 11.0111 221.889 10.8884C222.001 10.7691 222.169 10.7061 222.395 10.7061C222.621 10.7061 222.8 10.7657 222.911 10.8884C223.023 11.0077 223.077 11.1603 223.077 11.3393C223.077 11.5184 223.023 11.6776 222.911 11.7936C222.8 11.9096 222.628 11.9693 222.395 11.9693ZM222.034 17.6689V12.6656H223.141V17.6689H222.034Z" fill="white"/>
<path d="M226.2 17.798C225.829 17.798 225.505 17.735 225.229 17.609C224.952 17.483 224.736 17.2973 224.587 17.052C224.436 16.8066 224.362 16.5148 224.362 16.1733C224.362 15.8152 224.449 15.5168 224.621 15.2814C224.794 15.046 225.043 14.8703 225.364 14.7509C225.684 14.6348 226.069 14.5752 226.517 14.5752H227.792V15.2913H226.49C226.156 15.2913 225.9 15.371 225.724 15.5268C225.549 15.6859 225.461 15.8915 225.461 16.1435C225.461 16.3955 225.549 16.601 225.724 16.7503C225.9 16.9028 226.156 16.979 226.49 16.979C226.686 16.979 226.871 16.9426 227.047 16.8729C227.222 16.8033 227.371 16.684 227.485 16.5148C227.603 16.3491 227.667 16.1136 227.677 15.8086L227.961 16.17C227.931 16.5215 227.843 16.8199 227.701 17.0553C227.559 17.294 227.364 17.4764 227.114 17.6024C226.864 17.7283 226.561 17.7913 226.204 17.7913L226.2 17.798ZM227.853 17.6687V16.1733H227.674V14.4823C227.674 14.174 227.593 13.9386 227.428 13.7761C227.262 13.6136 227.023 13.5341 226.699 13.5341C226.524 13.5341 226.328 13.5341 226.112 13.544C225.9 13.5506 225.687 13.5573 225.485 13.5672C225.279 13.5771 225.101 13.5871 224.942 13.6004V12.662C225.08 12.6488 225.232 12.6388 225.401 12.6289C225.566 12.619 225.741 12.6123 225.92 12.6057C226.099 12.5991 226.271 12.5957 226.436 12.5957C226.952 12.5957 227.381 12.662 227.721 12.7913C228.062 12.9206 228.315 13.1263 228.481 13.4081C228.646 13.6899 228.73 14.0646 228.73 14.5354V17.6654H227.853V17.6687Z" fill="white"/>
<path d="M4.24336 17.689C3.37648 17.689 2.62427 17.5066 1.98676 17.1453C1.34924 16.7838 0.860137 16.2798 0.516084 15.6399C0.172028 14.9967 0 14.2673 0 13.4449V0.838867H1.76413V13.6903C1.76413 14.3966 1.99013 14.9834 2.43875 15.4509C2.88737 15.9184 3.50465 16.1505 4.29058 16.1505H8.90163V17.6923H4.23999L4.24336 17.689Z" fill="white"/>
<path d="M11.6506 17.6892V16.1474H15.0608V2.35759H11.6506V0.8125H20.2352V2.35428H16.8249V16.144H20.2352V17.6859H11.6506V17.6892Z" fill="white"/>
<path d="M22.1951 17.6893L28.1789 2.28479C28.4252 1.65814 28.7389 1.20389 29.1234 0.922063C29.5079 0.640232 29.9599 0.500977 30.4861 0.500977C31.0124 0.500977 31.4913 0.63692 31.8826 0.91212C32.2739 1.184 32.5842 1.63493 32.8136 2.26159L38.8481 17.6893H36.9119L35.195 13.2529H25.7773L24.0604 17.6893H22.1951ZM26.317 11.7112H34.6553L31.3193 2.86172C31.2215 2.60641 31.1102 2.40416 30.9888 2.25827C30.8673 2.11238 30.7054 2.04275 30.5098 2.04275C30.2973 2.04275 30.1387 2.1157 30.0308 2.25827C29.9228 2.40416 29.8149 2.6031 29.7002 2.86172L26.317 11.7112Z" fill="white"/>
<path d="M49.3721 17.689C47.9655 17.689 46.7006 17.4768 45.5706 17.049C44.444 16.6247 43.486 16.0245 42.7001 15.252C41.9141 14.4794 41.3104 13.5842 40.8854 12.563C40.4603 11.5417 40.2478 10.4377 40.2478 9.24734C40.2478 8.05696 40.4603 6.9529 40.8854 5.93166C41.3104 4.91044 41.9175 4.01521 42.7136 3.24267C43.5062 2.47012 44.4642 1.87331 45.5841 1.44559C46.7039 1.02118 47.9655 0.805664 49.3721 0.805664H52.0199V4.181H49.4699C48.7008 4.181 48.0026 4.31031 47.3718 4.56561C46.7411 4.82423 46.2014 5.17901 45.7527 5.63988C45.3041 6.09745 44.9601 6.63128 44.7239 7.24134C44.4878 7.8514 44.3697 8.51784 44.3697 9.24403C44.3697 9.97015 44.4878 10.6333 44.7239 11.2433C44.9601 11.8534 45.3041 12.3872 45.7527 12.8481C46.2014 13.3057 46.7411 13.6638 47.3718 13.9224C48.0026 14.181 48.7008 14.307 49.4699 14.307H52.0199V17.6823H49.3721V17.689Z" fill="white"/>
<path d="M63.2762 18.0037C61.903 18.0037 60.6584 17.7782 59.5486 17.3273C58.4355 16.8764 57.4809 16.2497 56.6781 15.4473C55.8754 14.645 55.258 13.7132 54.8263 12.6522C54.3912 11.5912 54.1753 10.4507 54.1753 9.22716C54.1753 8.00372 54.3912 6.8631 54.8263 5.80211C55.258 4.7411 55.872 3.81272 56.6646 3.01697C57.4573 2.22121 58.4153 1.6045 59.5352 1.1602C60.655 0.719217 61.903 0.49707 63.2762 0.49707C64.6487 0.49707 65.8699 0.719217 66.993 1.1602C68.113 1.60118 69.0712 2.22121 69.8637 3.01697C70.6562 3.81272 71.2737 4.74442 71.7155 5.81206C72.1574 6.87972 72.3768 8.01697 72.3768 9.22385C72.3768 10.4308 72.1574 11.5879 71.7155 12.6489C71.2737 13.7099 70.6562 14.6417 69.8637 15.444C69.0712 16.2464 68.113 16.873 66.993 17.324C65.873 17.7749 64.6355 18.0004 63.2762 18.0004V18.0037ZM63.2762 14.5554C63.9943 14.5554 64.6624 14.4228 65.2762 14.1575C65.8899 13.8923 66.4162 13.5176 66.858 13.0368C67.2999 12.5561 67.6443 11.9891 67.8868 11.3359C68.133 10.686 68.2549 9.98316 68.2549 9.22716C68.2549 8.47122 68.133 7.7716 67.8868 7.12835C67.6405 6.48516 67.2968 5.92479 66.858 5.4407C66.4162 4.95994 65.8899 4.58527 65.2762 4.32002C64.6624 4.05476 63.998 3.92214 63.2762 3.92214C62.5543 3.92214 61.8694 4.05476 61.2655 4.32002C60.6617 4.58527 60.1322 4.95994 59.6835 5.4407C59.2349 5.92147 58.8909 6.48847 58.6547 7.14166C58.4187 7.79479 58.3006 8.48778 58.3006 9.22716C58.3006 9.96653 58.4187 10.686 58.6547 11.3359C58.8909 11.9858 59.2349 12.5528 59.6835 13.0368C60.1322 13.5176 60.6617 13.8923 61.2655 14.1575C61.8694 14.4228 62.5405 14.5554 63.2762 14.5554Z" fill="white"/>
<path d="M87.2656 17.9774C86.2669 17.9774 85.3563 17.7619 84.53 17.3275C83.7038 16.8932 83.0494 16.2898 82.5669 15.5205C82.0844 14.748 81.8413 13.8328 81.8413 12.7718V5.41773C81.8413 5.16242 81.7775 4.92701 81.6456 4.71812C81.5144 4.50923 81.3425 4.34014 81.13 4.21083C80.9175 4.08151 80.6813 4.01852 80.4181 4.01852C80.155 4.01852 79.9188 4.08151 79.7063 4.21083C79.4938 4.34014 79.325 4.50923 79.2038 4.71812C79.0825 4.92701 79.0181 5.1591 79.0181 5.41773V17.689H74.9944V5.70618C74.9944 4.69491 75.2269 3.803 75.6925 3.03046C76.1581 2.25791 76.8056 1.64783 77.6288 1.1969C78.455 0.74597 79.3825 0.520508 80.4113 0.520508C81.44 0.520508 82.3881 0.74597 83.2075 1.1969C84.0238 1.64783 84.6719 2.25791 85.1438 3.03046C85.6194 3.803 85.8556 4.69491 85.8556 5.70618V13.0603C85.8556 13.3322 85.9194 13.5742 86.0513 13.7831C86.1825 13.992 86.3481 14.1578 86.5538 14.2771C86.7594 14.3965 86.9819 14.4595 87.2281 14.4595C87.4913 14.4595 87.7313 14.3998 87.9538 14.2771C88.1731 14.1578 88.3481 13.992 88.48 13.7831C88.6113 13.5742 88.6756 13.3322 88.6756 13.0603V5.70618C88.6756 4.69491 88.9113 3.803 89.3869 3.03046C89.8625 2.25791 90.5106 1.64783 91.3369 1.1969C92.1631 0.74597 93.0806 0.520508 94.0963 0.520508C95.1113 0.520508 96.0694 0.74597 96.8788 1.1969C97.6881 1.64783 98.3294 2.25791 98.805 3.03046C99.2806 3.803 99.5169 4.69491 99.5169 5.70618V17.689H95.4925V5.39451C95.4925 5.13921 95.4319 4.90711 95.3069 4.70818C95.1856 4.50592 95.0169 4.34345 94.8044 4.21414C94.5919 4.08483 94.3556 4.02183 94.0925 4.02183C93.8463 4.02183 93.6138 4.08483 93.3944 4.21414C93.175 4.34345 92.9963 4.50592 92.8681 4.70818C92.7369 4.91043 92.6725 5.13921 92.6725 5.39451V12.7718C92.6725 13.8328 92.4263 14.748 91.9375 15.5205C91.4481 16.2931 90.7938 16.8932 89.9744 17.3275C89.1575 17.7619 88.2506 17.9774 87.2519 17.9774H87.2656Z" fill="white"/>
</g>
<defs>
<clipPath id="clip0_1489_1193">
<rect width="285" height="20" fill="white"/>
</clipPath>
</defs>
</svg>
