<svg width="25" height="25" viewBox="0 0 25 25" fill="none" xmlns="http://www.w3.org/2000/svg">
<g clip-path="url(#clip0_1489_1346)">
<path d="M12.4253 24.6083C5.70801 24.6083 0.243164 19.1435 0.243164 12.4262C0.243164 5.70899 5.70801 0.244141 12.4253 0.244141C19.1425 0.244141 24.6074 5.70899 24.6074 12.4262C24.6074 19.1435 19.1425 24.6083 12.4253 24.6083Z" fill="white"/>
<path d="M12.4253 0.486505C15.614 0.486505 18.6123 1.72848 20.8676 3.98309C23.1229 6.23839 24.3642 9.23596 24.3642 12.4253C24.3642 15.6147 23.1222 18.6123 20.8676 20.8676C18.613 23.1229 15.6147 24.3642 12.4253 24.3642C9.23596 24.3642 6.23839 23.1222 3.98309 20.8676C1.72779 18.613 0.486505 15.614 0.486505 12.4253C0.486505 9.23665 1.72779 6.23769 3.98309 3.98309C6.23769 1.72779 9.23596 0.486505 12.4253 0.486505ZM12.4253 0C5.56284 0 0 5.56284 0 12.4253C0 19.2879 5.56284 24.8507 12.4253 24.8507C19.2879 24.8507 24.8507 19.2879 24.8507 12.4253C24.8507 5.56284 19.2872 0 12.4253 0Z" fill="#D2D2D2"/>
<path d="M7.34837 8.83904C7.68798 9.29797 8.47078 10.2223 9.84583 10.8315C10.9008 11.2987 11.8605 11.3843 12.4249 11.3935C12.1332 10.4085 12.5612 9.3651 13.4515 8.8464C14.4225 8.28033 15.733 8.46105 16.5241 9.29889C17.0309 9.14576 17.6417 8.99493 18.0751 8.69833C18.0096 8.85744 17.9143 9.04551 17.7731 9.24232C17.5141 9.60238 17.2131 9.83368 16.9981 9.97164C17.4853 9.86679 17.8782 9.91002 18.4596 9.6571C18.338 9.85024 18.1557 10.0958 17.8909 10.3427C17.6407 10.5759 17.3929 10.7387 17.1945 10.8495C17.3025 13.4986 15.7785 15.956 13.3196 17.1038C9.86293 18.7179 6.5597 16.81 6.38965 16.7079C6.88709 16.7364 7.64937 16.7226 8.52551 16.4734C9.24431 16.2687 9.66112 15.9818 10.0359 15.7441C9.77351 15.7188 9.2189 15.6319 8.65696 15.2621C8.06374 14.8722 7.94989 14.3558 7.83946 14.13C7.94891 14.1695 8.15072 14.227 8.40726 14.2114C8.64767 14.1967 8.82994 14.1249 8.93255 14.0753C8.69947 14.0348 8.03394 13.8904 7.47444 13.3336C6.81575 12.6774 6.96527 11.9664 6.95745 11.7655C7.04883 11.8455 7.23012 11.983 7.50083 12.0607C7.73391 12.1274 7.93474 12.1214 8.05348 12.1094C7.21985 11.6896 6.70873 10.9139 6.75027 10.1169C6.78496 9.45017 7.19445 8.99401 7.34739 8.8395L7.34837 8.83904Z" fill="#121212"/>
</g>
<defs>
<clipPath id="clip0_1489_1346">
<rect width="24.85" height="24.85" fill="white"/>
</clipPath>
</defs>
</svg>
